<svg width="123" height="42" viewBox="0 0 123 42" fill="none" xmlns="http://www.w3.org/2000/svg">
<path d="M62.8671 5.04016C62.6179 5.02014 62.3627 5.05685 62.1213 5.15435C61.5119 5.40052 61.1092 5.98644 61.0987 6.64219C61.0941 6.9351 61.0894 7.22793 61.0848 7.5207C61.0261 7.44852 60.9446 7.35533 60.8468 7.26388C60.699 7.12562 60.4045 6.88567 59.9673 6.77555C58.5134 6.36627 57.0453 6.25505 55.5782 6.36983L55.5664 6.37079C53.5439 6.5437 51.6632 7.11878 49.8811 7.95197C47.2072 9.20218 44.8925 10.9552 43.1134 13.4447C41.7346 15.3648 40.8234 17.5599 40.7318 20.0617C40.6413 22.249 41.2255 24.3134 42.4836 26.1203C43.2557 27.237 44.0337 28.3466 44.8082 29.451L44.8096 29.4531C45.5842 30.5577 46.3553 31.6573 47.1195 32.7624C48.3591 34.5985 50.0261 35.9282 52.174 36.6627C52.1807 36.665 52.1873 36.6672 52.194 36.6694C54.2751 37.3515 56.3741 37.4331 58.4586 37.0578C61.3806 36.5346 63.9811 35.3101 66.27 33.5489C67.3879 33.8586 68.5039 34.1657 69.6155 34.4681C69.6517 34.478 69.6883 34.4866 69.7252 34.4939C70.1442 34.5775 70.5426 34.5771 70.7796 34.5768L70.8158 34.5768C71.3294 34.5768 71.8264 34.5148 72.2142 34.4663L72.2229 34.4653C73.6172 34.3388 75.0283 34.2108 76.4417 34.0571L76.456 34.0559C76.5662 34.0461 76.7574 34.0291 76.9287 33.9947C77.0817 33.964 77.4017 33.8882 77.7202 33.6552C78.1043 33.7449 78.5399 33.8093 78.9984 33.8093C79.0373 33.8093 79.0762 33.8079 79.115 33.8051C79.8591 33.7521 80.5989 33.676 81.3092 33.6029L81.3211 33.6016C81.6813 33.5646 82.034 33.5283 82.3856 33.4949C82.3925 33.4942 82.3994 33.4935 82.4063 33.4928C82.8682 33.443 83.3318 33.3992 83.8082 33.3543L83.813 33.3538C84.2842 33.3094 84.768 33.2637 85.2535 33.2114C86.0386 33.1267 86.6442 32.4977 86.7092 31.7255C88.4037 32.3321 90.1223 32.4829 91.825 32.3734L91.8257 32.3733C92.101 32.3555 92.375 32.3296 92.6475 32.2951C92.7513 32.3703 92.8344 32.4165 92.8703 32.4365C92.8752 32.4392 92.8793 32.4414 92.8823 32.4432C92.8925 32.4489 92.9026 32.4546 92.9128 32.4601L99.9924 36.2978C100.001 36.3028 100.011 36.3076 100.02 36.3124C100.027 36.3162 100.035 36.3199 100.042 36.3236C100.121 36.3632 100.203 36.4074 100.313 36.4668C100.331 36.4765 100.35 36.4869 100.37 36.4977C100.737 36.6979 101.415 37.068 102.281 37.108C104.935 37.2608 107.588 37.439 110.242 37.6426L110.251 37.6432C112.769 37.8226 115.113 37.2164 117.164 35.5734L117.169 35.5694C119.097 34.0127 120.273 31.9704 120.835 29.6417L120.838 29.6271C121.182 28.1419 121.311 26.482 120.723 24.7894C120.676 24.6355 120.622 24.4864 120.564 24.3449C122.324 22.2771 123.063 19.7984 122.796 17.0275L122.796 17.0245C122.629 15.3247 121.867 13.7389 120.348 12.6568L120.339 12.6501C119.684 12.1901 119 11.8177 118.4 11.4912L118.367 11.4732C118.248 11.4085 118.133 11.3456 118.018 11.2824C117.123 10.7725 116.225 10.2738 115.337 9.78122L115.332 9.77837C114.241 9.17302 113.168 8.57708 112.111 7.9671C112.106 7.96405 112.101 7.96102 112.095 7.95803C111.041 7.36468 109.767 6.74625 108.195 6.67489C107.115 6.61146 106.04 6.54169 104.959 6.47153L104.957 6.47136C103.875 6.40114 102.787 6.33054 101.693 6.2663C100.847 6.21517 99.9995 6.16395 99.1262 6.11271C98.676 6.0863 98.2349 6.24624 97.9067 6.55482C97.6717 6.77587 97.5096 7.05917 97.4365 7.36746C97.429 7.38781 97.4214 7.40924 97.414 7.43124C97.3888 7.50666 97.3567 7.61677 97.3361 7.75309C97.2316 8.21824 97.12 8.67956 97.0056 9.1525L97.0044 9.15734C96.9086 9.5533 96.8107 9.95802 96.7175 10.3644C96.5388 11.1089 96.3598 11.8538 96.1805 12.599C95.5864 12.161 94.9932 11.7344 94.4089 11.3142L94.4041 11.3108C94.3185 11.2476 94.2315 11.1827 94.14 11.1145L94.1397 11.1143L94.1302 11.1073L94.1299 11.1071L94.0971 11.0825C93.621 10.7274 93.0074 10.2696 92.3468 9.92694L92.3436 9.92531C90.5344 8.99191 88.63 8.73224 86.728 8.8771C84.5524 9.02499 82.4952 9.70814 80.6997 11.0733C80.0165 11.5907 79.4017 12.1725 78.8641 12.8191L78.7776 12.7935C78.7782 12.5181 78.7806 12.2387 78.7831 11.9529L78.7832 11.9506C78.786 11.6284 78.7889 11.298 78.7889 10.9663V8.3567C78.7889 7.6301 78.3076 6.99087 77.608 6.78829C76.5726 6.48844 75.5365 6.18359 74.4944 5.87695L74.4921 5.87627L74.4919 5.87619C73.1448 5.47981 71.7877 5.08047 70.4214 4.68905L70.3537 4.66971L70.3532 4.66955L70.3041 4.65543C69.9999 4.56778 69.4902 4.4209 68.9177 4.4209C68.8959 4.4209 68.874 4.42133 68.8522 4.4222C68.2976 4.44433 67.7552 4.5147 67.2931 4.57464L67.2638 4.57844C67.1046 4.59908 66.9545 4.61853 66.8058 4.63637C66.057 4.71931 65.2988 4.79487 64.5225 4.87224L64.5199 4.8725C63.9765 4.92665 63.4243 4.98167 62.8671 5.04016Z" fill="white"/>
<path fill-rule="evenodd" clip-rule="evenodd" d="M64.6857 6.49744C64.0496 6.56083 63.4083 6.62473 62.7619 6.69382L62.7362 6.66823C62.7043 8.6747 62.6739 10.678 62.6444 12.6793C62.0546 11.808 61.4593 10.9409 60.862 10.0709C60.529 9.58595 60.1955 9.10013 59.8619 8.61216C59.785 8.50982 59.6824 8.3819 59.5541 8.35631C58.2972 7.99813 57.0147 7.89579 55.7065 7.99813C53.911 8.15164 52.218 8.66333 50.5764 9.43087C48.114 10.5822 46.0363 12.1684 44.4459 14.3943C43.2147 16.1085 42.4452 18.0018 42.3682 20.1253C42.2913 21.9674 42.7786 23.6816 43.8303 25.1911C44.5998 26.304 45.3758 27.4106 46.1517 28.5172C46.9277 29.6237 47.7036 30.7302 48.4731 31.8431C49.5247 33.4038 50.9099 34.5039 52.7054 35.1179C54.5009 35.7064 56.3221 35.7831 58.169 35.4505C61.0743 34.9304 63.6431 33.643 65.8986 31.7508C67.2861 32.1362 68.6701 32.5181 70.0466 32.8926C70.3031 32.9437 70.5596 32.9437 70.8162 32.9437C71.2265 32.9437 71.637 32.8926 72.0474 32.8414L72.0477 32.8414C73.4584 32.7135 74.8691 32.5855 76.2797 32.4321C76.844 32.3809 76.844 32.3809 76.8697 31.818C76.8697 31.8074 76.8785 31.8012 76.8888 31.7939C76.9034 31.7837 76.921 31.7712 76.921 31.7413C77.0295 31.7722 77.1381 31.8055 77.2474 31.839C77.4995 31.9163 77.7555 31.9947 78.024 32.0483C78.3318 32.125 78.6652 32.1762 78.9987 32.1762C79.7169 32.125 80.4352 32.0511 81.1534 31.9772C81.5125 31.9403 81.8716 31.9033 82.2307 31.8692C82.7052 31.818 83.1797 31.7732 83.6543 31.7285C84.1288 31.6837 84.6033 31.6389 85.0779 31.5878V31.4087C85.0968 30.614 85.1123 29.8159 85.1256 29.0156C85.7442 29.4459 86.3763 29.8414 87.1028 30.1049C88.5906 30.6678 90.1296 30.8213 91.7199 30.719C92.3533 30.6779 92.9682 30.5896 93.5621 30.4471C93.5466 30.5119 93.531 30.5767 93.5155 30.6415C93.4385 30.8462 93.5155 30.923 93.695 31.0253L100.775 34.863C100.883 34.917 100.989 34.9745 101.095 35.0318C101.489 35.2457 101.879 35.4569 102.365 35.477C105.033 35.6305 107.7 35.8096 110.368 36.0143C112.523 36.1678 114.446 35.6561 116.139 34.3001C117.755 32.9953 118.756 31.2811 119.243 29.26C119.551 27.9295 119.628 26.5991 119.166 25.2943C119.061 24.9383 118.887 24.5995 118.715 24.2638C118.677 24.1894 118.639 24.1149 118.602 24.0407C119.021 23.7357 119.469 23.1203 119.662 22.8557L119.662 22.8554C119.677 22.8343 119.691 22.8154 119.703 22.7991C120.892 21.1795 121.371 19.3035 121.167 17.184C121.039 15.8791 120.474 14.7534 119.397 13.9859C118.818 13.5796 118.203 13.2448 117.583 12.9067C117.461 12.8404 117.339 12.7738 117.217 12.7066C116.326 12.199 115.43 11.7018 114.536 11.2056L114.536 11.2054C113.447 10.6013 112.362 9.99866 111.291 9.38062C110.291 8.81775 109.291 8.35723 108.111 8.30606C107.02 8.2421 105.937 8.17174 104.853 8.10138C103.769 8.03102 102.685 7.96065 101.595 7.89669C100.749 7.84552 99.9024 7.79436 99.0303 7.74319C98.809 8.54717 98.623 9.36754 98.4377 10.1848C98.3959 10.3689 98.3542 10.553 98.3121 10.7366C97.9374 12.2978 97.5613 13.8604 97.1845 15.4237C97.0372 15.2903 96.883 15.1609 96.7218 15.0355C95.6445 14.1912 94.5415 13.3981 93.4385 12.605C93.3462 12.5369 93.2532 12.4676 93.1596 12.3977C92.6552 12.0216 92.1326 11.6319 91.5917 11.3513C90.104 10.5838 88.5136 10.3535 86.8463 10.4814C84.9482 10.6094 83.2039 11.1978 81.6906 12.3491C80.8049 13.0198 80.0661 13.8056 79.4875 14.7064C79.2282 14.6304 78.9695 14.5538 78.7108 14.4773L78.7104 14.4771C78.2688 14.3464 77.8272 14.2157 77.3827 14.0878C77.3057 14.0622 77.1518 13.9599 77.1518 13.8831C77.1347 13.235 77.1404 12.5868 77.1461 11.9387C77.149 11.6146 77.1518 11.2905 77.1518 10.9665V8.35682C76.1126 8.05589 75.0734 7.75011 74.0321 7.44369L74.0315 7.44351C72.6826 7.04661 71.3302 6.64867 69.9697 6.25888L69.9024 6.23964C69.5686 6.1441 69.2546 6.0542 68.918 6.0542C68.4371 6.07339 67.9561 6.13575 67.4752 6.19811C67.3148 6.2189 67.1545 6.23969 66.9942 6.25888C66.2325 6.3433 65.4629 6.41998 64.6857 6.49744Z" fill="#161616"/>
<path d="M71.2769 28.2875V29.1062H71.8156C72.521 29.0422 73.2263 28.9719 73.9317 28.9015L73.9325 28.9014C74.6377 28.8311 75.3428 28.7608 76.048 28.6968C76.3558 28.6712 76.4584 28.5689 76.4584 28.2875V27.8781C76.484 26.7012 76.5097 25.4987 76.5097 24.3218C76.5182 23.6736 76.5296 23.0254 76.541 22.3772C76.5638 21.081 76.5866 19.7847 76.5866 18.4885C76.5866 17.7721 76.4584 17.0558 76.2019 16.365C75.7402 15.1369 74.9193 14.2414 73.6625 13.8577C71.9439 13.3204 70.3535 13.6274 68.8658 14.6252C68.7375 14.7276 68.6093 14.8299 68.4297 14.9578C68.4427 13.57 68.4623 12.202 68.4818 10.8403L68.4819 10.839C68.5008 9.51505 68.5197 8.19716 68.5323 6.87305C68.3454 6.89321 68.1604 6.91336 67.9773 6.93333C67.2306 7.01471 66.5137 7.09285 65.8134 7.15448C65.1587 7.20112 64.5253 7.26902 63.8744 7.33881L63.6844 7.35916C63.4535 7.35916 63.3509 7.43591 63.3509 7.69176C63.3662 8.02789 63.3541 8.37314 63.3419 8.72207C63.3336 8.95744 63.3253 9.19448 63.3253 9.43152C63.2996 10.6339 63.274 11.8365 63.274 13.039C63.2483 14.2414 63.2227 15.4439 63.2227 16.6464L63.2211 16.7203C63.196 17.9227 63.1714 19.1016 63.1714 20.305C63.1457 21.5075 63.1201 22.7101 63.1201 23.9125C63.1116 24.5312 63.1003 25.1526 63.0889 25.7751C63.0661 27.0316 63.0431 28.2922 63.0431 29.5411V29.9249H63.5048C64.223 29.8737 64.9411 29.797 65.6593 29.7202C66.4032 29.6691 67.1472 29.5923 67.8911 29.5155C68.1219 29.4899 68.2245 29.4132 68.2245 29.1573C68.2245 28.7352 68.2309 28.3131 68.2374 27.891C68.2438 27.4689 68.2502 27.0466 68.2502 26.6245C68.263 25.665 68.2758 24.6992 68.2887 23.7334L68.2887 23.7329C68.3015 22.7672 68.3143 21.8016 68.3271 20.8423C68.3271 20.4074 68.4554 19.998 68.7119 19.6398C69.071 19.1281 69.8405 18.8467 70.4561 19.0258C70.9691 19.1793 71.3539 19.6654 71.3539 20.305C71.3693 21.1655 71.357 22.0352 71.3446 22.903C71.3364 23.4802 71.3283 24.0566 71.3283 24.6288L71.3267 24.7027C71.3016 25.9051 71.2769 27.084 71.2769 28.2875Z" fill="white"/>
<path fill-rule="evenodd" clip-rule="evenodd" d="M84.9732 22.1727C84.7167 21.8913 84.5115 21.5842 84.4346 21.1749H84.5628C85.6444 21.1504 86.7024 21.1023 87.782 21.0534L87.923 21.047C89.3595 20.9702 90.7703 20.919 92.181 20.8679C92.4165 20.8595 92.6546 20.8483 92.8938 20.8372L92.8941 20.8371C93.3844 20.8142 93.8787 20.7911 94.3613 20.7911C94.4896 20.7911 94.5409 20.7399 94.5665 20.612C94.8743 19.3328 94.9257 18.0535 94.6691 16.7743C94.2074 14.4205 92.848 12.7831 90.6164 11.8365C89.5134 11.3759 88.3591 11.248 87.1792 11.2736C85.6658 11.2992 84.2807 11.6574 82.9725 12.3993C81.3308 13.3204 80.0996 14.6764 79.3814 16.4161C78.7145 18.0791 78.5862 19.7677 78.9453 21.5075C79.3044 23.1705 80.1766 24.5265 81.536 25.5499C82.639 26.3686 83.8959 26.8291 85.2554 27.0338C86.6662 27.2385 88.0513 27.1873 89.4108 26.8547C90.9498 26.4709 92.3093 25.7034 93.3866 24.5009C93.4892 24.373 93.4892 24.2962 93.3866 24.1939C92.5145 23.3496 91.6681 22.4797 90.8216 21.6099C90.7703 21.5587 90.719 21.5075 90.642 21.4563L90.5907 21.5587C89.616 22.6076 88.3847 23.0681 86.9483 23.017C86.1788 22.9914 85.4862 22.7611 84.9732 22.1727ZM88.0513 15.4183C88.8208 15.623 89.4621 16.4161 89.4877 17.2348H89.4621C88.6249 17.274 87.7878 17.3065 86.9473 17.3391C86.1395 17.3704 85.3286 17.4019 84.5115 17.4395C84.5297 17.3852 84.5446 17.3342 84.5586 17.2863L84.5587 17.286C84.5842 17.1986 84.6066 17.1218 84.6398 17.0557C85.2297 15.7253 86.6662 15.0345 88.0513 15.4183Z" fill="white"/>
<path fill-rule="evenodd" clip-rule="evenodd" d="M110.341 22.5054C110.265 21.3097 109.833 20.2657 108.92 19.4239C109.019 19.3528 109.111 19.2878 109.199 19.2257C109.357 19.1138 109.503 19.0109 109.649 18.8979C111.521 17.3372 112.291 15.3161 112.034 12.9111C111.829 11.2481 110.905 10.1223 109.315 9.55949C108.622 9.32194 107.893 9.2849 107.173 9.24835C107.04 9.2416 106.908 9.23486 106.776 9.22688C106.288 9.2013 105.795 9.16932 105.301 9.13734C104.807 9.10536 104.313 9.07338 103.826 9.04779L103.619 9.03568C102.378 8.9629 101.115 8.8889 99.8757 8.79194C99.6449 8.79194 99.5679 8.8687 99.5166 9.07338C99.1319 10.7364 98.7471 12.3738 98.3367 14.0368C97.3363 18.1304 96.336 22.2495 95.3612 26.3431L94.5148 29.8738C94.5661 29.9249 94.6174 29.9249 94.643 29.9249C96.3103 30.0529 98.0032 30.1808 99.6705 30.2831L99.8161 30.2914C100.668 30.3399 101.542 30.3896 102.415 30.4622C103.698 30.5645 104.903 30.3855 106.058 29.8226C108.084 28.8504 109.341 27.2129 110.008 25.115C110.264 24.2707 110.392 23.4008 110.341 22.5054ZM100.363 25.9593C100.491 25.966 100.618 25.9728 100.744 25.9794C101.575 26.0235 102.357 26.065 103.159 26.0872C103.39 26.0872 103.621 26.0105 103.826 25.9081C104.929 25.3708 105.365 24.4242 105.416 23.2473C105.468 22.2239 104.801 21.6099 103.8 21.5587C103.561 21.5417 103.321 21.5275 103.082 21.5132C102.603 21.4848 102.124 21.4564 101.646 21.4052C101.492 21.4052 101.466 21.4308 101.415 21.5843C101.081 23.0171 100.722 24.4498 100.337 25.9593H100.363ZM102.441 17.2861C102.791 17.2966 103.132 17.316 103.468 17.335C103.945 17.362 104.411 17.3884 104.878 17.3884C105.134 17.3884 105.416 17.3117 105.673 17.2093C106.545 16.8 106.853 16.0324 106.955 15.137C107.058 14.1647 106.571 13.653 105.673 13.5251C105.257 13.4791 104.842 13.4606 104.426 13.4422C104.149 13.4299 103.872 13.4177 103.595 13.3972C103.441 13.3972 103.39 13.4739 103.339 13.6019C103.176 14.2934 103.006 14.985 102.831 15.6912C102.702 16.2129 102.572 16.7426 102.441 17.2861Z" fill="white"/>
<path d="M58.7866 19.5881C60.0343 19.9214 61.282 20.2548 62.5297 20.5714L62.5102 21.9227L62.4803 21.9675C60.9669 24.0654 58.9148 25.5237 56.5806 26.5727C54.8364 27.3658 52.9896 27.8264 51.0658 27.7752C48.9368 27.724 46.9873 27.0844 45.4483 25.5493C44.2171 24.3213 43.5758 22.8118 43.3706 21.0976C43.1397 19.0764 43.704 17.2343 44.7557 15.5457C46.9104 12.0662 50.1423 10.0706 54.0669 9.14951C55.3494 8.84249 56.6576 8.81691 57.9658 9.02159C58.0422 9.02159 58.1095 9.03974 58.1839 9.05983C58.2345 9.07347 58.2883 9.088 58.3505 9.09834H58.3249C58.2927 9.17316 58.2695 9.24352 58.2478 9.30941C58.2175 9.40123 58.1901 9.48438 58.1453 9.55886C57.8375 10.1984 57.5233 10.8444 57.2092 11.4904C56.8949 12.1364 56.5806 12.7825 56.2728 13.4222C56.2215 13.5501 56.1702 13.678 55.965 13.6268C54.1695 13.2175 52.5791 13.8059 51.1171 14.7781C49.9371 15.5713 49.1163 16.6203 48.8342 18.053C48.4494 19.9207 49.4498 22.3768 51.5531 23.0164C52.6817 23.3746 53.7847 23.2211 54.862 22.7862C56.1189 22.2745 57.2476 21.5581 58.0684 20.458C58.1701 20.3275 58.2553 20.1889 58.3428 20.0467C58.4097 19.9378 58.4779 19.8269 58.5557 19.716C58.607 19.6648 58.7096 19.5881 58.7866 19.5881Z" fill="white"/>
<ellipse cx="20.9578" cy="20.904" rx="20.9578" ry="20.904" fill="white"/>
<path d="M18.529 33.6651C16.1162 32.7285 13.9391 30.7701 12.4304 28.1109C13.8346 28.9775 15.374 29.7623 17.0212 30.4337C18.5747 31.0671 20.1306 31.5615 21.6538 31.9197C21.3353 32.3018 21.0141 32.6271 20.6947 32.8916C19.8529 33.5888 19.1318 33.7903 18.529 33.6651Z" fill="#161616"/>
<path d="M23.221 8.15965L23.2234 8.14365C25.6717 9.06686 27.8836 11.041 29.4105 13.7333C28.0056 12.8659 26.4652 12.0806 24.8168 11.4086C23.2632 10.7753 21.7073 10.2808 20.184 9.9226C20.294 9.79059 20.4046 9.66514 20.5155 9.54645C21.5772 8.41015 22.5128 8.05157 23.221 8.15965Z" fill="#161616"/>
<path fill-rule="evenodd" clip-rule="evenodd" d="M1.36816 20.9211C1.36816 10.1522 10.1205 1.42236 20.9171 1.42236C31.7136 1.42236 40.466 10.1522 40.466 20.9211C40.466 31.6899 31.7136 40.4198 20.9171 40.4198C10.1205 40.4198 1.36816 31.6899 1.36816 20.9211ZM20.8911 4.42382C16.8354 4.42382 13.1199 5.8657 10.2356 8.26071C9.74442 8.36856 9.26914 8.49661 8.81174 8.64475C8.23352 8.83203 7.68137 9.05246 7.16073 9.30609C10.4694 5.4527 15.3938 3.00976 20.8911 3.00976C30.8492 3.00976 38.9273 11.0259 38.9273 20.9211C38.9273 23.2525 38.4789 25.4795 37.6631 27.522C37.6391 27.5869 37.6138 27.6516 37.5874 27.7161C37.5541 27.7975 37.5191 27.8777 37.4827 27.957C37.4223 28.0973 37.3601 28.2366 37.2963 28.375C36.9898 28.9193 36.5952 29.4175 36.1197 29.8657C34.609 31.3294 32.3455 32.1955 29.7585 32.5025C27.7702 32.7384 25.5398 32.6539 23.2007 32.239C22.6913 32.9329 22.1549 33.5202 21.6004 33.9795C21.4777 34.0811 21.3536 34.1767 21.2283 34.2659C21.8221 34.3018 22.4203 34.2749 23.0173 34.181C23.4999 34.105 23.9698 33.9872 24.4248 33.8304C25.381 33.9444 26.3182 34.0043 27.2281 34.0109C26.0425 34.8035 24.7027 35.3473 23.2382 35.5778C21.4376 35.8611 19.6704 35.6358 18.0252 34.9995C17.7829 34.9298 17.5434 34.8282 17.3083 34.6927C14.1875 33.2268 11.5761 30.2654 10.1236 26.5222C8.69133 25.4212 7.46169 24.2349 6.47732 23.0118C6.18224 22.6452 5.90758 22.2729 5.6553 21.8965C5.63409 21.5946 5.62254 21.2918 5.62073 20.9884C5.61692 20.3469 5.65671 19.7074 5.73929 19.0737C6.13598 20.0672 6.75261 21.095 7.58286 22.1266C8.09964 22.7687 8.69359 23.4041 9.35783 24.0235C9.26406 23.6147 9.18355 23.1994 9.11696 22.7785C8.52816 19.0559 9.11317 15.4225 10.5879 12.5055C11.0705 12.3596 11.6232 12.2477 12.2083 12.1681C12.2793 12.1585 12.3504 12.1493 12.4214 12.1407C10.6908 14.8749 9.88849 18.5824 10.5173 22.5581C10.6884 23.6394 10.954 24.6693 11.3003 25.6375C11.5508 25.8238 11.8078 26.0076 12.0712 26.1886L12.0611 26.2034C13.6769 27.3048 15.5284 28.3027 17.5556 29.1291L17.5575 29.1248C19.2465 29.8133 20.9287 30.3265 22.5551 30.6724C23.029 29.9257 23.4864 29.0538 23.9112 28.0705C24.8727 25.8453 25.5968 23.212 25.9805 20.5256C26.2457 18.6698 26.3379 16.8623 26.2604 15.2175C26.7575 15.4772 27.2387 15.7472 27.7024 16.0259C27.7214 17.5244 27.6142 19.1139 27.3841 20.7251C26.9845 23.5219 26.2295 26.278 25.2132 28.6302C24.8528 29.4643 24.4624 30.2409 24.0479 30.9458C24.8392 31.0671 25.6128 31.1473 26.3626 31.1876L26.3609 31.2167C29.0249 31.3698 31.4346 31.0146 33.2531 30.1174C33.2709 30.1086 33.2886 30.0998 33.3062 30.0909C33.3212 30.0834 33.3361 30.0758 33.3509 30.0683C34.5215 29.4988 35.4089 28.733 35.9634 27.8041L35.9914 27.817C36.0527 27.6849 36.1123 27.5519 36.1702 27.418L36.1815 27.394C36.2374 27.264 36.2917 27.1332 36.3444 27.0015L36.3535 26.976C36.9333 25.518 37.3098 23.9586 37.4487 22.3327L37.4495 22.3347C37.4893 21.8687 37.5096 21.3973 37.5096 20.9211C37.5096 11.8129 30.0723 4.42382 20.8911 4.42382ZM12.0168 10.767C11.5776 10.8267 11.1207 10.9073 10.6734 11.0168C8.10446 11.6168 6.31932 12.8743 5.58374 14.6113L5.53966 14.5919C4.72325 16.5411 4.27258 18.679 4.27258 20.9211C4.27258 30.0293 11.7099 37.4184 20.8911 37.4184C24.9381 37.4184 28.6463 35.9827 31.5281 33.5969C32.6266 33.3605 33.6553 33.0214 34.5847 32.5788C31.2764 36.4075 26.3681 38.8325 20.8911 38.8325C10.933 38.8325 2.85488 30.8163 2.85488 20.9211C2.85488 18.5089 3.33494 16.2084 4.20525 14.1084L4.22421 14.1161C4.57936 13.2494 5.13697 12.4836 5.87395 11.8304C7.38229 10.4551 9.57983 9.63649 12.0794 9.33989C14.0677 9.10397 16.298 9.18842 18.637 9.60332C18.9102 9.23118 19.1911 8.88977 19.4783 8.58238C19.8407 8.19455 20.2194 7.8551 20.61 7.57623C20.0167 7.54044 19.419 7.56739 18.8226 7.66125C18.3395 7.73727 17.8691 7.8553 17.4137 8.01234C16.4583 7.89831 15.5215 7.83815 14.6117 7.83141C15.7973 7.03879 17.1371 6.49494 18.6016 6.26447C24.1633 5.38928 29.4071 9.36653 31.7171 15.3222C33.1482 16.4227 34.3769 17.6083 35.3607 18.8306C35.6031 19.1318 35.8317 19.4368 36.0455 19.7447C36.0756 20.1329 36.091 20.5252 36.091 20.9211C36.091 21.4618 36.0624 21.9958 36.0065 22.5216C35.7857 21.9885 35.5058 21.458 35.1754 20.9363L35.15 20.9523C34.8863 20.542 34.5879 20.1292 34.2551 19.7158C33.739 19.0744 33.1458 18.4398 32.4826 17.8211C32.5761 18.2292 32.6564 18.6436 32.7229 19.0638C33.3144 22.8034 32.7213 26.4532 31.2315 29.3769C30.6692 29.5363 30.0558 29.6558 29.3984 29.733C31.1428 26.9959 31.9538 23.2751 31.3225 19.2841C31.1516 18.2036 30.8862 17.1744 30.5403 16.2068C30.4245 16.1206 30.3072 16.035 30.1886 15.9499L30.2001 15.9338C28.487 14.7153 26.4885 13.6126 24.2821 12.7132L24.2803 12.7175C22.5914 12.029 20.9091 11.5158 19.2826 11.1699C18.6827 12.1153 18.1142 13.2532 17.6075 14.5472C16.7656 16.697 16.1424 19.1544 15.8135 21.6339C15.5821 23.3784 15.5043 25.074 15.5774 26.6248C15.0802 26.3651 14.5991 26.0952 14.1353 25.8164C14.1176 24.4208 14.2094 22.9462 14.4081 21.4484C14.7508 18.865 15.4005 16.2963 16.287 14.0327C16.7369 12.8837 17.2424 11.8275 17.7899 10.8965C16.9475 10.7675 16.1251 10.6848 15.3301 10.6474L15.3316 10.6178C14.5463 10.5788 13.2851 10.5946 12.0168 10.767Z" fill="#161616"/>
</svg>
