<svg width="32" height="32" viewBox="0 0 32 32" fill="none" xmlns="http://www.w3.org/2000/svg">
<circle cx="16" cy="16" r="16" fill="white"/>
<path d="M14.1456 25.7672C12.3035 25.0502 10.6415 23.5513 9.48969 21.5159C10.5617 22.1793 11.7369 22.7799 12.9944 23.2938C14.1805 23.7786 15.3683 24.157 16.5312 24.4312C16.288 24.7237 16.0428 24.9726 15.799 25.1751C15.1563 25.7088 14.6058 25.863 14.1456 25.7672Z" fill="#161616"/>
<path d="M17.7276 6.24513L17.7295 6.23288C19.5986 6.93951 21.2873 8.45055 22.453 10.5112C21.3804 9.84734 20.2044 9.24623 18.9459 8.73191C17.7598 8.24714 16.572 7.86868 15.409 7.5945C15.4931 7.49346 15.5775 7.39744 15.6621 7.3066C16.4727 6.43686 17.1869 6.1624 17.7276 6.24513Z" fill="#161616"/>
<path fill-rule="evenodd" clip-rule="evenodd" d="M1.04431 16.0128C1.04431 7.77026 7.7262 1.08838 15.9687 1.08838C24.2112 1.08838 30.8931 7.77026 30.8931 16.0128C30.8931 24.2553 24.2112 30.9372 15.9687 30.9372C7.7262 30.9372 1.04431 24.2553 1.04431 16.0128ZM15.9489 3.38571C12.8526 3.38571 10.0161 4.48933 7.81405 6.32249C7.43908 6.40503 7.07623 6.50304 6.72704 6.61643C6.2856 6.75977 5.86406 6.92849 5.46659 7.12262C7.99258 4.17322 11.752 2.30338 15.9489 2.30338C23.5513 2.30338 29.7185 8.43898 29.7185 16.0128C29.7185 17.7972 29.3761 19.5018 28.7533 21.0652C28.7349 21.1149 28.7157 21.1644 28.6955 21.2137C28.6701 21.276 28.6434 21.3375 28.6156 21.3981C28.5694 21.5055 28.522 21.6121 28.4732 21.7181C28.2393 22.1347 27.938 22.516 27.575 22.859C26.4217 23.9794 24.6937 24.6423 22.7187 24.8772C21.2007 25.0578 19.4979 24.9932 17.7121 24.6756C17.3232 25.2067 16.9138 25.6562 16.4904 26.0078C16.3967 26.0855 16.302 26.1587 16.2063 26.227C16.6597 26.2545 17.1164 26.2339 17.5721 26.162C17.9406 26.1038 18.2993 26.0136 18.6466 25.8936C19.3766 25.9809 20.0922 26.0268 20.7868 26.0318C19.8816 26.6384 18.8589 27.0547 17.7408 27.2311C16.3661 27.448 15.0169 27.2755 13.7609 26.7885C13.5759 26.7351 13.3931 26.6574 13.2136 26.5537C10.8311 25.4317 8.83744 23.165 7.72857 20.2999C6.63511 19.4572 5.69635 18.5492 4.94484 17.613C4.71957 17.3324 4.50988 17.0474 4.31728 16.7594C4.30109 16.5283 4.29227 16.2965 4.29089 16.0643C4.28798 15.5733 4.31836 15.0838 4.3814 14.5988C4.68426 15.3592 5.15501 16.1459 5.78886 16.9355C6.18339 17.427 6.63684 17.9133 7.14394 18.3874C7.07235 18.0745 7.01089 17.7566 6.96005 17.4344C6.51054 14.5852 6.95715 11.8042 8.08303 9.5715C8.45145 9.45978 8.8734 9.37413 9.32007 9.31324C9.37432 9.30584 9.42859 9.29885 9.48279 9.29226C8.16159 11.385 7.54907 14.2227 8.02915 17.2658C8.15973 18.0934 8.36253 18.8817 8.62686 19.6228C8.81811 19.7654 9.01435 19.906 9.21542 20.0446L9.2077 20.0559C10.4413 20.8989 11.8548 21.6627 13.4024 22.2952L13.4039 22.292C14.6933 22.8189 15.9776 23.2117 17.2193 23.4765C17.581 22.9049 17.9303 22.2376 18.2546 21.485C18.9886 19.7818 19.5414 17.7662 19.8344 15.7101C20.0368 14.2896 20.1072 12.9061 20.048 11.6472C20.4276 11.846 20.7949 12.0526 21.1489 12.266C21.1634 13.413 21.0816 14.6295 20.9059 15.8628C20.6008 18.0034 20.0244 20.113 19.2485 21.9134C18.9734 22.5518 18.6754 23.1462 18.3589 23.6858C18.963 23.7786 19.5536 23.84 20.126 23.8708L20.1248 23.8931C22.1585 24.0103 23.9982 23.7384 25.3865 23.0517C25.4001 23.045 25.4136 23.0382 25.4271 23.0314C25.4385 23.0257 25.4499 23.0199 25.4612 23.0141C26.3549 22.5782 27.0323 21.9921 27.4557 21.2811L27.4771 21.291C27.5239 21.1899 27.5694 21.0881 27.6136 20.9855L27.6222 20.9672C27.6649 20.8677 27.7064 20.7675 27.7465 20.6667L27.7535 20.6472C28.1961 19.5313 28.4836 18.3377 28.5896 17.0933L28.5902 17.0948C28.6206 16.7381 28.6361 16.3773 28.6361 16.0128C28.6361 9.04138 22.9582 3.38571 15.9489 3.38571ZM9.17387 8.24083C8.83858 8.28654 8.48981 8.34818 8.14829 8.43198C6.18706 8.89125 4.82422 9.85373 4.26265 11.1832L4.229 11.1684C3.60572 12.6603 3.26166 14.2967 3.26166 16.0128C3.26166 22.9843 8.9396 28.6399 15.9489 28.6399C19.0386 28.6399 21.8696 27.541 24.0696 25.7149C24.9083 25.534 25.6936 25.2744 26.4032 24.9356C23.8774 27.8662 20.1302 29.7222 15.9489 29.7222C8.3465 29.7222 2.17933 23.5866 2.17933 16.0128C2.17933 14.1665 2.54582 12.4057 3.21026 10.7983L3.22473 10.8043C3.49586 10.1409 3.92157 9.5547 4.48421 9.05474C5.63573 8.00207 7.31343 7.37551 9.22173 7.14849C10.7397 6.96792 12.4423 7.03256 14.2281 7.35012C14.4366 7.06528 14.6511 6.80397 14.8703 6.56869C15.147 6.27184 15.4361 6.01202 15.7343 5.79858C15.2813 5.77118 14.825 5.79181 14.3697 5.86365C14.0009 5.92184 13.6418 6.01218 13.2941 6.13238C12.5647 6.0451 11.8495 5.99905 11.1549 5.9939C12.0601 5.38722 13.0829 4.97095 14.201 4.79455C18.447 4.12467 22.4503 7.16888 24.2139 11.7274C25.3065 12.5697 26.2445 13.4771 26.9955 14.4127C27.1806 14.6432 27.3551 14.8767 27.5183 15.1124C27.5414 15.4095 27.5531 15.7098 27.5531 16.0128C27.5531 16.4267 27.5312 16.8354 27.4886 17.2378C27.32 16.8298 27.1063 16.4237 26.8541 16.0244L26.8347 16.0367C26.6334 15.7227 26.4056 15.4067 26.1515 15.0902C25.7575 14.5994 25.3046 14.1136 24.7983 13.6401C24.8697 13.9524 24.931 14.2696 24.9818 14.5912C25.4333 17.4535 24.9805 20.2471 23.8432 22.4849C23.4139 22.6069 22.9456 22.6984 22.4437 22.7575C23.7755 20.6625 24.3946 17.8146 23.9127 14.7599C23.7822 13.9328 23.5796 13.145 23.3155 12.4045C23.2271 12.3385 23.1376 12.273 23.047 12.2078L23.0558 12.1955C21.7479 11.2629 20.2222 10.4189 18.5377 9.73043L18.5364 9.73374C17.2469 9.20675 15.9626 8.81395 14.7209 8.54918C14.263 9.27279 13.8289 10.1438 13.4421 11.1342C12.7993 12.7797 12.3236 14.6606 12.0725 16.5584C11.8958 17.8937 11.8364 19.1914 11.8922 20.3785C11.5126 20.1797 11.1453 19.973 10.7913 19.7597C10.7778 18.6915 10.8478 17.5628 10.9995 16.4164C11.2611 14.439 11.7572 12.4729 12.4339 10.7404C12.7775 9.86094 13.1633 9.0525 13.5813 8.33993C12.9382 8.24116 12.3103 8.17792 11.7034 8.1493L11.7046 8.12658C11.105 8.09677 10.1422 8.10883 9.17387 8.24083Z" fill="#161616"/>
</svg>
