<svg width="512" height="512" viewBox="0 0 512 512" fill="none" xmlns="http://www.w3.org/2000/svg">
<g clip-path="url(#clip0_707_21229)">
<circle cx="256" cy="256" r="256" fill="white"/>
<path d="M226.329 412.277C196.856 400.806 170.264 376.823 151.835 344.258C168.986 354.871 187.79 364.481 207.911 372.704C226.888 380.46 245.892 386.515 264.498 390.902C260.608 395.582 256.685 399.564 252.783 402.804C242.5 411.343 233.693 413.81 226.329 412.277Z" fill="#161616"/>
<path d="M283.642 99.9248L283.672 99.7288C313.577 111.035 340.596 135.212 359.247 168.182C342.086 157.56 323.27 147.942 303.135 139.713C284.157 131.957 265.152 125.902 246.545 121.515C247.889 119.898 249.239 118.362 250.594 116.908C263.563 102.993 274.991 98.6012 283.642 99.9248Z" fill="#161616"/>
<path fill-rule="evenodd" clip-rule="evenodd" d="M16.7088 256.207C16.7088 124.327 123.619 17.4168 255.499 17.4168C387.38 17.4168 494.29 124.327 494.29 256.207C494.29 388.088 387.38 494.998 255.499 494.998C123.619 494.998 16.7088 388.088 16.7088 256.207ZM255.182 54.174C205.641 54.174 160.257 71.8321 125.025 101.163C119.025 102.483 113.219 104.051 107.632 105.866C100.569 108.159 93.8248 110.859 87.4652 113.965C127.881 66.7742 188.032 36.8569 255.182 36.8569C376.82 36.8569 475.495 135.026 475.495 256.208C475.495 284.759 470.018 312.032 460.053 337.045C459.759 337.841 459.451 338.633 459.128 339.423C458.721 340.419 458.294 341.402 457.849 342.372C457.111 344.09 456.352 345.797 455.572 347.492C451.829 354.157 447.008 360.258 441.2 365.747C422.747 383.673 395.099 394.279 363.498 398.039C339.21 400.928 311.967 399.894 283.394 394.812C277.171 403.31 270.62 410.502 263.846 416.127C262.347 417.371 260.831 418.542 259.301 419.634C266.555 420.074 273.862 419.745 281.154 418.594C287.049 417.664 292.788 416.221 298.346 414.301C310.026 415.697 321.474 416.431 332.589 416.511C318.106 426.218 301.742 432.878 283.852 435.7C261.858 439.17 240.271 436.411 220.175 428.618C217.215 427.764 214.289 426.521 211.418 424.861C173.297 406.91 141.399 370.643 123.657 324.802C106.161 311.318 91.1414 296.79 79.1173 281.811C75.5129 277.321 72.1579 272.762 69.0763 268.153C68.8172 264.456 68.6761 260.747 68.6541 257.032C68.6075 249.176 69.0935 241.344 70.1022 233.583C74.9479 245.75 82.48 258.337 92.6215 270.971C98.934 278.834 106.189 286.616 114.303 294.201C113.157 289.194 112.174 284.109 111.361 278.954C104.168 233.366 111.314 188.869 129.328 153.147C135.223 151.359 141.974 149.989 149.121 149.015C149.989 148.896 150.857 148.784 151.724 148.679C130.585 182.163 120.785 227.567 128.466 276.255C130.555 289.497 133.8 302.11 138.03 313.967C141.09 316.248 144.229 318.499 147.447 320.716L147.323 320.897C167.06 334.386 189.677 346.606 214.439 356.727L214.462 356.674C235.093 365.106 255.642 371.391 275.508 375.627C281.296 366.482 286.884 355.805 292.073 343.763C303.817 316.512 312.662 284.263 317.35 251.364C320.589 228.637 321.715 206.501 320.768 186.358C326.841 189.539 332.718 192.845 338.383 196.259C338.615 214.61 337.306 234.076 334.494 253.807C329.613 288.058 320.39 321.811 307.976 350.617C303.574 360.832 298.806 370.342 293.742 378.975C303.408 380.46 312.857 381.443 322.016 381.936L321.996 382.292C354.536 384.167 383.971 379.817 406.184 368.829C406.401 368.722 406.618 368.614 406.833 368.505C407.016 368.413 407.198 368.321 407.38 368.228C421.678 361.254 432.517 351.876 439.291 340.5L439.633 340.658C440.382 339.041 441.11 337.412 441.817 335.771L441.955 335.478C442.638 333.886 443.301 332.283 443.944 330.671L444.056 330.358C451.138 312.503 455.737 293.406 457.434 273.495L457.443 273.519C457.93 267.813 458.178 262.039 458.178 256.208C458.178 144.665 367.331 54.174 255.182 54.174ZM146.782 131.856C141.417 132.587 135.837 133.574 130.372 134.914C98.9928 142.263 77.1873 157.662 68.2022 178.934L67.6638 178.698C57.6913 202.568 52.1863 228.75 52.1863 256.208C52.1863 367.751 143.033 458.242 255.182 458.242C304.617 458.242 349.913 440.659 385.113 411.441C398.532 408.546 411.097 404.393 422.45 398.973C382.039 445.862 322.084 475.559 255.182 475.559C133.544 475.559 34.8691 377.389 34.8691 256.208C34.8691 226.667 40.733 198.493 51.3639 172.776L51.5955 172.871C55.9336 162.256 62.7449 152.878 71.7471 144.879C90.1715 128.036 117.015 118.011 147.547 114.379C171.834 111.489 199.077 112.524 227.649 117.605C230.986 113.047 234.417 108.866 237.925 105.102C242.352 100.352 246.978 96.1951 251.748 92.78C244.501 92.3417 237.2 92.6718 229.915 93.8211C224.014 94.7521 218.269 96.1976 212.706 98.1208C201.036 96.7243 189.592 95.9875 178.479 95.9051C192.961 86.1982 209.326 79.538 227.216 76.7155C295.152 65.9975 359.205 114.705 387.422 187.641C404.903 201.118 419.912 215.637 431.928 230.606C434.889 234.294 437.682 238.03 440.293 241.801C440.662 246.555 440.85 251.359 440.85 256.207C440.85 262.829 440.5 269.369 439.817 275.808C437.12 269.279 433.701 262.782 429.666 256.394L429.355 256.59C426.134 251.566 422.489 246.51 418.424 241.447C412.119 233.593 404.874 225.82 396.772 218.244C397.915 223.241 398.896 228.317 399.708 233.462C406.933 279.259 399.688 323.956 381.491 359.762C374.621 361.713 367.13 363.177 359.099 364.123C380.408 330.602 390.313 285.036 382.602 236.161C380.514 222.928 377.273 210.323 373.048 198.474C371.633 197.419 370.201 196.37 368.752 195.328L368.892 195.131C347.966 180.209 323.555 166.705 296.603 155.69L296.582 155.743C275.951 147.311 255.401 141.026 235.535 136.79C228.207 148.367 221.263 162.303 215.073 178.15C204.789 204.477 197.177 234.572 193.159 264.937C190.332 286.301 189.382 307.066 190.275 326.058C184.202 322.878 178.325 319.572 172.66 316.158C172.444 299.067 173.565 281.008 175.992 262.665C180.178 231.027 188.115 199.57 198.943 171.849C204.439 157.778 210.613 144.843 217.3 133.442C207.01 131.861 196.965 130.849 187.255 130.392L187.273 130.028C177.68 129.551 162.275 129.744 146.782 131.856Z" fill="#161616"/>
</g>
<defs>
<clipPath id="clip0_707_21229">
<rect width="512" height="512" rx="80" fill="white"/>
</clipPath>
</defs>
</svg>
