<svg width="100" height="100" viewBox="0 0 100 100" fill="none" xmlns="http://www.w3.org/2000/svg">
<path d="M84.9405 16.9048C84.334 16.0829 83.4359 15.5242 82.4306 15.3432L23.1193 4.66805C21.035 4.29291 19.0195 5.60737 18.5224 7.66601L4.44001 65.9927C4.16122 67.1474 4.41006 68.3663 5.11916 69.3193L16.1215 84.1062C16.7281 84.9214 17.6221 85.4752 18.6221 85.6551L77.9398 96.3315C80.0251 96.7068 82.0414 95.3909 82.5373 93.3308L96.5639 35.0579C96.8404 33.9093 96.5949 32.6972 95.8934 31.7466L84.9405 16.9048Z" fill="#161616"/>
<path d="M65.2981 76.3814C66.3388 76.5666 67.3439 75.91 67.5924 74.8826L81.0601 19.216C81.3309 18.0964 80.6025 16.9801 79.4687 16.777L22.7625 6.62254C21.7217 6.43617 20.7157 7.09208 20.4664 8.11957L6.94467 63.8396C6.67269 64.9604 7.40241 66.0783 8.53784 66.2803L65.2981 76.3814Z" fill="white"/>
<path fill-rule="evenodd" clip-rule="evenodd" d="M36.7689 16.8269C35.243 16.509 33.7483 17.4883 33.4304 19.0142L28.3783 43.2648C28.1236 44.4874 28.7015 45.6899 29.7262 46.2832C29.8107 46.3321 29.8516 46.435 29.8095 46.5231C29.4693 47.2353 28.7798 47.7387 27.9696 47.8261L27.4558 47.8816C27.4032 47.8873 27.3508 47.8704 27.3102 47.8364C26.8503 47.4503 26.2918 47.1694 25.6639 47.0386C23.6227 46.6133 21.6208 47.935 21.1926 49.9907C20.7643 52.0463 22.0719 54.0575 24.1131 54.4827C25.5652 54.7852 26.9975 54.2036 27.8574 53.1025C27.8897 53.0611 27.9371 53.0338 27.9893 53.0282L28.5246 52.9704C31.5355 52.6456 34.0311 50.5455 34.8914 47.6855C34.9202 47.59 35.0166 47.5307 35.1143 47.551L36.1727 47.7715C36.2749 47.7928 36.3405 47.8929 36.3192 47.9951L34.7633 55.4636C34.5298 56.5843 33.5875 57.4183 32.4467 57.514L31.784 57.5695C31.7313 57.5739 31.6793 57.5559 31.6396 57.5209C31.1671 57.1046 30.5844 56.8018 29.9251 56.6644C27.8839 56.2392 25.882 57.5609 25.4538 59.6165C25.0255 61.6722 26.3331 63.6833 28.3743 64.1086C29.7953 64.4046 31.1973 63.854 32.0625 62.7985C32.0958 62.7578 32.1438 62.7317 32.1962 62.7273L32.8789 62.67C36.3013 62.3832 39.1283 59.8811 39.8287 56.5188L41.3846 49.0504C41.4059 48.9482 41.506 48.8826 41.6082 48.9039L43.1026 49.2152C43.2048 49.2365 43.2704 49.3366 43.2491 49.4388L42.2545 54.213C41.8081 56.3557 42.2872 58.5873 43.5738 60.358L46.1821 63.9478C46.2128 63.99 46.2243 64.0432 46.2157 64.0947C45.8779 66.0983 47.1714 68.0246 49.1639 68.4397C51.2051 68.8649 53.207 67.5432 53.6352 65.4876C54.0635 63.4319 52.7559 61.4208 50.7147 60.9955C50.6351 60.9789 50.5556 60.965 50.4762 60.9537C50.4242 60.9463 50.377 60.9188 50.3461 60.8762L47.7596 57.3166C47.3308 56.7263 47.1711 55.9825 47.3199 55.2682L48.3145 50.4941C48.3358 50.3919 48.4358 50.3263 48.538 50.3476L49.5965 50.5681C49.6941 50.5884 49.7589 50.6813 49.7471 50.7804C49.3938 53.746 50.8431 56.668 53.4738 58.1681L53.9415 58.4348C53.9871 58.4608 54.0196 58.5048 54.0328 58.5556C54.3814 59.9085 55.4623 61.0137 56.9144 61.3162C58.9557 61.7414 60.9575 60.4197 61.3858 58.3641C61.814 56.3085 60.5065 54.2973 58.4653 53.8721C57.8374 53.7413 57.2131 53.7758 56.6373 53.9461C56.5866 53.9611 56.5318 53.9556 56.4858 53.9294L56.0369 53.6734C55.3652 53.2903 54.9427 52.6072 54.8778 51.8644C54.868 51.7524 54.9668 51.6656 55.0792 51.6698C56.4302 51.721 57.6607 50.7924 57.9457 49.4246L62.9978 25.174C63.3157 23.648 62.3364 22.1533 60.8105 21.8354L36.7689 16.8269ZM41.8632 27.1117C41.3545 27.0057 40.8563 27.3322 40.7503 27.8408L38.614 38.0956C38.508 38.6042 38.8344 39.1025 39.3431 39.2084L49.5129 41.3271C50.0215 41.4331 50.5198 41.1066 50.6257 40.598L52.7621 30.3432C52.8681 29.8346 52.5416 29.3363 52.033 29.2304L41.8632 27.1117Z" fill="url(#paint0_radial_909_16132)"/>
<defs>
<radialGradient id="paint0_radial_909_16132" cx="0" cy="0" r="1" gradientUnits="userSpaceOnUse" gradientTransform="translate(41.0055 12.6581) rotate(77.0545) scale(58.134 42.1122)">
<stop offset="0.145" stop-color="#94D8E5"/>
<stop offset="0.331018" stop-color="#4271A7"/>
<stop offset="0.5" stop-color="#3E16FF"/>
<stop offset="0.68" stop-color="#682AE0"/>
<stop offset="0.915" stop-color="#AE48CD"/>
</radialGradient>
</defs>
</svg>
