<svg width="100" height="100" viewBox="0 0 100 100" fill="none" xmlns="http://www.w3.org/2000/svg">
<path d="M15.0595 15.9048C15.666 15.0829 16.5641 14.5242 17.5694 14.3432L76.8807 3.66805C78.965 3.29291 80.9805 4.60737 81.4776 6.66601L95.56 64.9927C95.8388 66.1474 95.5899 67.3663 94.8808 68.3193L83.8785 83.1062C83.2719 83.9214 82.3779 84.4752 81.3779 84.6551L22.0602 95.3315C19.9749 95.7068 17.9586 94.3909 17.4627 92.3308L3.43611 34.0579C3.15964 32.9093 3.40505 31.6972 4.10656 30.7466L15.0595 15.9048Z" fill="#161616"/>
<path d="M34.7024 75.3814C33.6617 75.5666 32.6566 74.91 32.408 73.8826L18.9404 18.216C18.6696 17.0964 19.398 15.9801 20.5318 15.777L77.238 5.62254C78.2787 5.43617 79.2848 6.09208 79.5341 7.11957L93.0558 62.8396C93.3278 63.9604 92.5981 65.0783 91.4626 65.2803L34.7024 75.3814Z" fill="white"/>
<path d="M59.9033 35.6645C60.7409 35.9541 60.958 36.9846 60.3086 37.5876L53.3812 44.0189C52.6852 44.6651 51.5317 44.3399 51.343 43.4442L49.3367 33.9238C49.148 33.0282 50.0722 32.2651 50.9698 32.5755L59.9033 35.6645Z" fill="url(#paint0_radial_909_16111)"/>
<path fill-rule="evenodd" clip-rule="evenodd" d="M31.2423 30.8993C30.8418 28.9988 32.0578 27.1334 33.9584 26.7329L70.3373 19.0669C72.2378 18.6664 74.1032 19.8824 74.5037 21.783L79.2691 44.3969C79.6696 46.2974 78.4535 48.1628 76.553 48.5633L63.4753 51.3191C63.3672 51.3419 63.2981 51.448 63.3209 51.5561L64.0671 55.0975C64.0899 55.2056 64.196 55.2748 64.3041 55.252L70.0077 54.0501C70.5507 53.9356 71.0836 54.2831 71.1981 54.8261L71.4052 55.8093C71.5197 56.3523 71.1722 56.8853 70.6292 56.9997L48.9985 61.5579C48.4555 61.6723 47.9226 61.3249 47.8081 60.7819L47.6009 59.7987C47.4865 59.2556 47.8339 58.7227 48.377 58.6083L54.0805 57.4064C54.1886 57.3836 54.2578 57.2775 54.235 57.1694L53.4887 53.628C53.4659 53.5199 53.3599 53.4507 53.2518 53.4735L40.1741 56.2293C38.2735 56.6298 36.4082 55.4138 36.0077 53.5133L31.2423 30.8993ZM36.9226 33.4909C36.6721 32.302 37.4328 31.1351 38.6217 30.8846L67.7455 24.7474C68.9344 24.4969 70.1013 25.2576 70.3518 26.4465L73.4848 41.3137C73.7353 42.5026 72.9746 43.6695 71.7857 43.9201L42.6619 50.0573C41.473 50.3078 40.3061 49.5471 40.0555 48.3582L36.9226 33.4909Z" fill="url(#paint1_radial_909_16111)"/>
<defs>
<radialGradient id="paint0_radial_909_16111" cx="0" cy="0" r="1" gradientUnits="userSpaceOnUse" gradientTransform="translate(42.1428 21.0939) rotate(45.4863) scale(48.5599 42.0494)">
<stop offset="0.145" stop-color="#94D8E5"/>
<stop offset="0.331018" stop-color="#4271A7"/>
<stop offset="0.5" stop-color="#3E16FF"/>
<stop offset="0.68" stop-color="#682AE0"/>
<stop offset="0.915" stop-color="#AE48CD"/>
</radialGradient>
<radialGradient id="paint1_radial_909_16111" cx="0" cy="0" r="1" gradientUnits="userSpaceOnUse" gradientTransform="translate(42.1428 21.0939) rotate(45.4863) scale(48.5599 42.0494)">
<stop offset="0.145" stop-color="#94D8E5"/>
<stop offset="0.331018" stop-color="#4271A7"/>
<stop offset="0.5" stop-color="#3E16FF"/>
<stop offset="0.68" stop-color="#682AE0"/>
<stop offset="0.915" stop-color="#AE48CD"/>
</radialGradient>
</defs>
</svg>
