<svg width="100" height="100" viewBox="0 0 100 100" fill="none" xmlns="http://www.w3.org/2000/svg">
<path d="M94.6989 71.9796C96.0897 71.1304 96.8264 69.5224 96.5612 67.9146L87.5798 13.4635C87.253 11.4819 85.5074 10.0499 83.5002 10.1167L32.7636 11.8041C32.0737 11.827 31.4014 12.0281 30.8122 12.3878L5.30073 27.9632C3.91007 28.8122 3.17337 30.4199 3.43829 32.0276L12.42 86.5323C12.7468 88.5158 14.4949 89.9485 16.5039 89.8796L67.2387 88.1395C67.9272 88.1159 68.5979 87.9149 69.1859 87.5559L94.6989 71.9796Z" fill="#161616"/>
<path fill-rule="evenodd" clip-rule="evenodd" d="M7.2831 31.6197C6.07418 31.6594 5.17692 32.7547 5.37603 33.9478L14.1081 86.271C14.2733 87.2606 15.1459 87.9746 16.1485 87.9407L63.719 86.3297C64.9272 86.2887 65.8231 85.1936 65.624 84.0013L56.8917 31.7269C56.7266 30.7383 55.8552 30.0246 54.8534 30.0575L7.2831 31.6197Z" fill="white"/>
<path fill-rule="evenodd" clip-rule="evenodd" d="M54.0353 46.0238C54.7537 45.0439 54.5418 43.6671 53.5619 42.9487L45.565 37.0859C44.5851 36.3674 43.2084 36.5794 42.49 37.5593L37.7014 44.0908C37.3564 44.5614 36.8386 44.8756 36.262 44.9644L30.1912 45.8992C29.6145 45.9879 29.0262 45.844 28.5556 45.499L22.0241 40.7105C21.0442 39.992 19.6675 40.204 18.9491 41.1839L13.0862 49.1808C12.3678 50.1607 12.5798 51.5374 13.5597 52.2558L20.0911 57.0443C20.5616 57.3893 20.8759 57.9071 20.9647 58.4837L21.8994 64.5547C21.9882 65.1314 21.8443 65.7197 21.4993 66.1903L16.7108 72.7217C15.9924 73.7016 16.2044 75.0783 17.1843 75.7967L25.1811 81.6596C26.161 82.378 27.5377 82.166 28.2561 81.1861L33.0446 74.6547C33.3896 74.1842 33.9074 73.8699 34.4841 73.7811L40.555 72.8464C41.1317 72.7576 41.7201 72.9015 42.1906 73.2465L48.722 78.035C49.7019 78.7534 51.0787 78.5414 51.7971 77.5615L57.6599 69.5647C58.3783 68.5848 58.1664 67.2081 57.1865 66.4896L50.6549 61.7011C50.1844 61.3561 49.8701 60.8383 49.7814 60.2616L48.8466 54.1909C48.7578 53.6142 48.9018 53.0258 49.2468 52.5553L54.0353 46.0238ZM31.9072 68.8398C32.3778 69.1848 32.9661 69.3287 33.5428 69.2399L40.0867 68.2323C40.6634 68.1435 41.1812 67.8293 41.5262 67.3587L44.84 62.8387C45.185 62.3682 45.329 61.7798 45.2402 61.2031L44.2326 54.659C44.1438 54.0823 43.8295 53.5645 43.359 53.2195L38.8391 49.9058C38.3685 49.5608 37.7802 49.4168 37.2035 49.5056L30.6593 50.5132C30.0826 50.602 29.5648 50.9163 29.2199 51.3868L25.906 55.9069C25.561 56.3774 25.4171 56.9658 25.5059 57.5424L26.5135 64.0864C26.6022 64.6631 26.9165 65.1809 27.387 65.5258L31.9072 68.8398Z" fill="url(#paint0_radial_909_16107)"/>
<defs>
<radialGradient id="paint0_radial_909_16107" cx="0" cy="0" r="1" gradientUnits="userSpaceOnUse" gradientTransform="translate(44.2414 29.9836) rotate(97.9633) scale(59.969 47.7281)">
<stop offset="0.145" stop-color="#94D8E5"/>
<stop offset="0.331018" stop-color="#4271A7"/>
<stop offset="0.5" stop-color="#3E16FF"/>
<stop offset="0.68" stop-color="#682AE0"/>
<stop offset="0.915" stop-color="#AE48CD"/>
</radialGradient>
</defs>
</svg>
