<svg width="100" height="100" viewBox="0 0 100 100" fill="none" xmlns="http://www.w3.org/2000/svg">
<path d="M94.6989 71.9796C96.0897 71.1304 96.8264 69.5224 96.5612 67.9146L87.5798 13.4635C87.253 11.4819 85.5074 10.0499 83.5002 10.1167L32.7636 11.8041C32.0737 11.827 31.4014 12.0281 30.8122 12.3878L5.30073 27.9632C3.91007 28.8122 3.17337 30.4199 3.43829 32.0276L12.42 86.5323C12.7468 88.5158 14.4949 89.9485 16.5039 89.8796L67.2387 88.1395C67.9272 88.1159 68.5979 87.9149 69.1859 87.5559L94.6989 71.9796Z" fill="#161616"/>
<path fill-rule="evenodd" clip-rule="evenodd" d="M7.2831 31.6197C6.07418 31.6594 5.17692 32.7547 5.37603 33.9478L14.1081 86.271C14.2733 87.2606 15.1459 87.9746 16.1485 87.9407L63.719 86.3297C64.9272 86.2887 65.8231 85.1936 65.624 84.0013L56.8917 31.7269C56.7266 30.7383 55.8552 30.0246 54.8534 30.0575L7.2831 31.6197Z" fill="white"/>
<path fill-rule="evenodd" clip-rule="evenodd" d="M38.0131 79.075C41.2912 78.5313 49.5805 60.1992 47.9769 50.5306C46.6693 42.6464 39.2049 37.3172 31.3047 38.6275C23.4045 39.9378 18.0601 47.3914 19.3678 55.2756C20.9714 64.9442 34.735 79.6187 38.0131 79.075ZM34.6589 58.8512C37.9506 58.3053 40.1775 55.1996 39.6326 51.9145C39.0878 48.6295 35.9776 46.409 32.6858 46.9549C29.3941 47.5009 27.1673 50.6065 27.7121 53.8916C28.257 57.1767 31.3671 59.3972 34.6589 58.8512Z" fill="url(#paint0_radial_909_16119)"/>
<defs>
<radialGradient id="paint0_radial_909_16119" cx="0" cy="0" r="1" gradientUnits="userSpaceOnUse" gradientTransform="translate(24.5194 35.4712) rotate(59.7466) scale(48.2646 30.6036)">
<stop offset="0.145" stop-color="#94D8E5"/>
<stop offset="0.331018" stop-color="#4271A7"/>
<stop offset="0.5" stop-color="#3E16FF"/>
<stop offset="0.68" stop-color="#682AE0"/>
<stop offset="0.915" stop-color="#AE48CD"/>
</radialGradient>
</defs>
</svg>
