<svg width="100" height="100" viewBox="0 0 100 100" fill="none" xmlns="http://www.w3.org/2000/svg">
<path d="M94.6989 71.9796C96.0897 71.1304 96.8264 69.5224 96.5612 67.9146L87.5798 13.4635C87.253 11.4819 85.5074 10.0499 83.5002 10.1167L32.7636 11.8041C32.0737 11.827 31.4014 12.0281 30.8122 12.3878L5.30073 27.9632C3.91007 28.8122 3.17337 30.4199 3.43829 32.0276L12.42 86.5323C12.7468 88.5158 14.4949 89.9485 16.5039 89.8796L67.2387 88.1395C67.9272 88.1159 68.5979 87.9149 69.1859 87.5559L94.6989 71.9796Z" fill="#161616"/>
<path fill-rule="evenodd" clip-rule="evenodd" d="M7.2831 31.6197C6.07418 31.6594 5.17692 32.7547 5.37603 33.9478L14.1081 86.271C14.2733 87.2606 15.1459 87.9746 16.1485 87.9407L63.719 86.3297C64.9272 86.2887 65.8231 85.1936 65.624 84.0013L56.8917 31.7269C56.7266 30.7383 55.8552 30.0246 54.8534 30.0575L7.2831 31.6197Z" fill="white"/>
<path fill-rule="evenodd" clip-rule="evenodd" d="M22.6681 50.9058C22.0434 44.8628 26.38 39.4634 32.3543 38.8458C38.3286 38.2282 43.6781 42.6263 44.3028 48.6692L44.8992 54.4385C44.9105 54.5484 45.0088 54.6282 45.1187 54.6169L46.5587 54.468C47.645 54.3557 48.6176 55.1554 48.7312 56.2541L50.445 72.8324C50.5586 73.9311 49.7701 74.9128 48.6838 75.0251L23.7712 77.6005C22.6849 77.7128 21.7123 76.9131 21.5987 75.8144L19.8849 59.2361C19.7713 58.1374 20.5598 57.1557 21.646 57.0434L23.0861 56.8945C23.196 56.8832 23.2758 56.7849 23.2645 56.675L22.6681 50.9058ZM27.8536 56.2006C27.865 56.3105 27.9633 56.3903 28.0732 56.379L40.1316 55.1324C40.2415 55.1211 40.3214 55.0228 40.31 54.9129L39.7136 49.1437C39.3539 45.6644 36.2739 43.1322 32.8342 43.4877C29.3944 43.8433 26.8976 46.9521 27.2572 50.4313L27.8536 56.2006ZM36.5541 66.6526C36.5468 66.582 36.5779 66.5132 36.6333 66.4687C37.3145 65.9223 37.7132 65.046 37.616 64.1053C37.4645 62.6404 36.1677 61.5742 34.7194 61.7239C33.2711 61.8736 32.2197 63.1826 32.3712 64.6475C32.4684 65.5882 33.0379 66.3644 33.8165 66.7599C33.8799 66.7921 33.9244 66.8531 33.9317 66.9237L34.2788 70.2812C34.2901 70.3911 34.3884 70.471 34.4983 70.4596L36.7228 70.2296C36.8327 70.2183 36.9125 70.12 36.9012 70.0101L36.5541 66.6526Z" fill="url(#paint0_radial_909_16115)"/>
<defs>
<radialGradient id="paint0_radial_909_16115" cx="0" cy="0" r="1" gradientUnits="userSpaceOnUse" gradientTransform="translate(25.8106 35.621) rotate(61.5952) scale(44.8561 30.2519)">
<stop offset="0.145" stop-color="#94D8E5"/>
<stop offset="0.331018" stop-color="#4271A7"/>
<stop offset="0.5" stop-color="#3E16FF"/>
<stop offset="0.68" stop-color="#682AE0"/>
<stop offset="0.915" stop-color="#AE48CD"/>
</radialGradient>
</defs>
</svg>
