<svg width="100" height="100" viewBox="0 0 100 100" fill="none" xmlns="http://www.w3.org/2000/svg">
<path d="M16.0595 16.9048C16.666 16.0829 17.5641 15.5242 18.5694 15.3432L77.8807 4.66805C79.965 4.29291 81.9805 5.60737 82.4776 7.66601L96.56 65.9927C96.8388 67.1474 96.5899 68.3663 95.8808 69.3193L84.8785 84.1062C84.2719 84.9214 83.3779 85.4752 82.3779 85.6551L23.0602 96.3315C20.9749 96.7068 18.9586 95.3909 18.4627 93.3308L4.43611 35.0579C4.15964 33.9093 4.40505 32.6972 5.10656 31.7466L16.0595 16.9048Z" fill="#161616"/>
<path d="M35.7024 76.3814C34.6617 76.5666 33.6566 75.91 33.408 74.8826L19.9404 19.216C19.6696 18.0964 20.398 16.9801 21.5318 16.777L78.238 6.62254C79.2787 6.43617 80.2848 7.09208 80.5341 8.11957L94.0558 63.8396C94.3278 64.9604 93.5981 66.0783 92.4626 66.2803L35.7024 76.3814Z" fill="white"/>
<path d="M59.7521 36.8147C59.5453 36.8044 59.4648 36.5035 59.6354 36.3864C62.2707 34.5773 63.7301 31.3093 63.0883 27.9535C62.225 23.4392 57.886 20.4755 53.397 21.3341C48.908 22.1926 45.9689 26.5481 46.8322 31.0625C47.47 34.3972 50.0043 36.8858 53.0947 37.6126C53.2962 37.66 53.33 37.9696 53.1411 38.0541C51.0848 38.9732 49.3115 40.3489 47.921 42.0328C47.8549 42.1128 47.7391 42.1303 47.6518 42.0742C46.487 41.3254 45.154 40.841 43.7478 40.6865C43.5555 40.6654 43.4779 40.3964 43.6248 40.2706C44.9934 39.0994 45.7133 37.2585 45.3533 35.3762C44.8169 32.5711 42.0855 30.7364 39.2526 31.2782C36.4198 31.82 34.5582 34.5331 35.0946 37.3381C35.4546 39.2205 36.803 40.6658 38.5072 41.2494C38.6902 41.312 38.7171 41.5908 38.5462 41.6814C35.1052 43.5053 33.1018 47.448 33.8785 51.5097C34.6466 55.5256 38.3395 54.8142 43.0028 53.916C43.1875 53.8804 43.3738 53.8445 43.5615 53.8086C43.7492 53.7727 43.9356 53.7373 44.1205 53.7022C44.2691 53.674 44.4166 53.646 44.5631 53.618C44.6742 53.5968 44.7806 53.6718 44.7998 53.7832C44.8155 53.8743 44.832 53.9655 44.8495 54.0568C46.0672 60.4239 51.9497 59.2908 59.3779 57.86L59.3803 57.8595C59.6739 57.803 59.9698 57.746 60.268 57.689C60.567 57.6318 60.8639 57.5754 61.1584 57.5195C68.5905 56.1083 74.4759 54.9908 73.2582 48.6237C73.2408 48.5323 73.2225 48.4414 73.2034 48.3507C73.18 48.2398 73.2518 48.1307 73.3632 48.1096C73.6636 48.053 73.9688 47.9942 74.2784 47.9346C74.4632 47.899 74.6495 47.8631 74.8372 47.8272C75.0249 47.7913 75.2113 47.7559 75.3961 47.7208C80.0618 46.8349 83.7566 46.1334 82.9885 42.1175C82.2117 38.0558 78.8948 35.1306 75.0237 34.7052C74.8314 34.684 74.7535 34.415 74.9005 34.2892C76.2691 33.118 76.9889 31.2771 76.629 29.3948C76.0925 26.5897 73.3611 24.755 70.5283 25.2968C67.6954 25.8386 65.8338 28.5517 66.3702 31.3567C66.7302 33.2391 68.0786 34.6845 69.7828 35.268C69.9658 35.3306 69.9929 35.6093 69.822 35.6999C68.48 36.4112 67.3567 37.4447 66.5316 38.6819C66.4716 38.772 66.3515 38.8004 66.2579 38.7461C64.3024 37.6119 62.0791 36.9307 59.7521 36.8147Z" fill="url(#paint0_radial_909_16127)"/>
<defs>
<radialGradient id="paint0_radial_909_16127" cx="0" cy="0" r="1" gradientUnits="userSpaceOnUse" gradientTransform="translate(42.3777 19.5605) rotate(43.1511) scale(50.331 45.662)">
<stop offset="0.145" stop-color="#94D8E5"/>
<stop offset="0.331018" stop-color="#4271A7"/>
<stop offset="0.5" stop-color="#3E16FF"/>
<stop offset="0.68" stop-color="#682AE0"/>
<stop offset="0.915" stop-color="#AE48CD"/>
</radialGradient>
</defs>
</svg>
