<svg width="575" height="169" viewBox="0 0 575 169" fill="none" xmlns="http://www.w3.org/2000/svg">
<g clip-path="url(#clip0_5702_13530)">
<path d="M67.1997 38.15L82.7497 0H84.6897L140.81 137.4C144.37 145.74 148.59 152.71 153.44 158.3C158.22 163.89 162.43 166.68 166.07 166.68V168.62H97.5497V166.68C102.08 166.68 105.41 163.36 107.51 156.72C108.4 153.97 108.85 151.09 108.85 148.1C108.85 143.73 107.92 138.99 106.06 133.89L99.0097 116.64L98.1597 114.7H98.2797L68.0297 40.72L67.1797 38.17L67.1997 38.15Z" fill="white"/>
<path d="M231.25 103.71C230.83 102.82 230.59 101.74 230.54 100.49L227.7 101.95C227.98 103.45 228.44 104.73 229.08 105.77C229.72 106.82 230.52 107.67 231.48 108.32C232.44 108.97 233.54 109.45 234.78 109.74C236.01 110.03 237.39 110.17 238.89 110.17C242.37 110.17 245.07 109.39 246.99 107.83C248.91 106.28 249.87 104.02 249.87 101.07C249.87 99.6501 249.61 98.4601 249.1 97.5201C248.59 96.5701 247.92 95.8 247.1 95.2001C246.28 94.6001 245.33 94.1201 244.26 93.7601C243.18 93.4001 242.1 93.0801 241 92.8001C239.9 92.5201 238.81 92.2401 237.74 91.9601C236.67 91.6801 235.72 91.3201 234.9 90.8701C234.07 90.4301 233.41 89.8601 232.89 89.1801C232.38 88.4901 232.12 87.5901 232.12 86.4801C232.12 85.6801 232.32 84.9501 232.72 84.3301C233.12 83.7101 233.65 83.19 234.29 82.7701C234.93 82.3501 235.65 82.0401 236.44 81.8301C237.24 81.6201 238.01 81.5201 238.76 81.5201C240.62 81.5201 242.27 81.9401 243.69 82.7901C245.11 83.6401 246.13 85.0401 246.74 86.9901L249.37 85.5701C248.51 83.09 247.16 81.3601 245.32 80.3901C243.48 79.41 241.29 78.9301 238.76 78.9301C237.7 78.9301 236.61 79.0701 235.5 79.3501C234.39 79.6301 233.37 80.0701 232.45 80.6801C231.53 81.2901 230.77 82.0701 230.17 83.0201C229.57 83.97 229.27 85.1301 229.27 86.4901C229.27 87.94 229.53 89.1401 230.04 90.1001C230.56 91.0601 231.23 91.8501 232.05 92.4601C232.87 93.0701 233.82 93.5601 234.89 93.9401C235.97 94.3101 237.05 94.6501 238.15 94.9401C238.957 95.1529 239.759 95.3711 240.552 95.5868L240.56 95.5889C240.845 95.6664 241.128 95.7436 241.41 95.8201C242.48 96.1101 243.43 96.5001 244.25 96.9701C245.07 97.4501 245.74 98.0401 246.26 98.7501C246.77 99.4601 247.03 100.39 247.03 101.53C247.03 102.45 246.83 103.27 246.43 104.01C246.03 104.75 245.46 105.38 244.72 105.91C243.98 106.45 243.12 106.86 242.13 107.15C241.14 107.44 240.11 107.59 238.89 107.59C237.67 107.59 236.55 107.45 235.55 107.19C234.55 106.93 233.68 106.51 232.96 105.92C232.24 105.34 231.67 104.6 231.25 103.71Z" fill="white"/>
<path fill-rule="evenodd" clip-rule="evenodd" d="M215.8 109.43L204.27 79.6899H201.97L189.86 109.43H192.79L196.34 100.49H209.41L212.75 109.43H215.8ZM202.97 83.4899L208.49 98.1499H197.29L202.97 83.4899Z" fill="white"/>
<path d="M266.51 100.49C266.56 101.74 266.8 102.82 267.22 103.71C267.64 104.6 268.21 105.34 268.93 105.92C269.65 106.51 270.52 106.93 271.52 107.19C272.52 107.45 273.64 107.59 274.86 107.59C276.08 107.59 277.11 107.44 278.1 107.15C279.09 106.86 279.95 106.45 280.69 105.91C281.43 105.38 282 104.75 282.4 104.01C282.8 103.27 283.01 102.45 283.01 101.53C283.01 100.39 282.75 99.4601 282.24 98.7501C281.72 98.0401 281.05 97.4501 280.23 96.9701C279.41 96.5001 278.46 96.1101 277.39 95.8201L276.54 95.5889L276.538 95.5885C275.743 95.3722 274.939 95.1534 274.13 94.9401C273.03 94.6501 271.95 94.3101 270.87 93.9401C269.8 93.5601 268.85 93.0701 268.03 92.4601C267.21 91.8501 266.54 91.0601 266.02 90.1001C265.51 89.1401 265.25 87.94 265.25 86.4901C265.25 85.1301 265.55 83.97 266.15 83.0201C266.75 82.0701 267.51 81.2901 268.43 80.6801C269.35 80.0701 270.37 79.6301 271.48 79.3501C272.59 79.0701 273.68 78.9301 274.74 78.9301C277.27 78.9301 279.46 79.41 281.3 80.3901C283.14 81.3601 284.49 83.09 285.35 85.5701L282.72 86.9901C282.11 85.0401 281.09 83.6401 279.67 82.7901C278.25 81.9401 276.6 81.5201 274.74 81.5201C273.99 81.5201 273.22 81.6201 272.42 81.8301C271.63 82.0401 270.91 82.3501 270.27 82.7701C269.63 83.19 269.1 83.7101 268.7 84.3301C268.3 84.9601 268.09 85.6801 268.09 86.4801C268.09 87.5901 268.35 88.4901 268.86 89.1801C269.38 89.8601 270.04 90.4301 270.87 90.8701C271.69 91.3201 272.64 91.6801 273.71 91.9601C274.78 92.2401 275.87 92.5201 276.97 92.8001C278.07 93.0801 279.15 93.4001 280.23 93.7601C281.3 94.1201 282.25 94.6001 283.07 95.2001C283.89 95.8 284.56 96.5701 285.07 97.5201C285.59 98.4601 285.84 99.6501 285.84 101.07C285.84 104.02 284.88 106.28 282.96 107.83C281.04 109.39 278.34 110.17 274.86 110.17C273.36 110.17 271.98 110.03 270.75 109.74C269.51 109.45 268.41 108.97 267.45 108.32C266.49 107.67 265.69 106.82 265.05 105.77C264.41 104.73 263.95 103.45 263.67 101.95L266.51 100.49Z" fill="white"/>
<path d="M322.04 104.27C322.55 102.98 322.81 101.48 322.81 99.7799V79.6899H319.97V99.6999C319.97 101.15 319.75 102.37 319.32 103.37C318.89 104.38 318.31 105.19 317.59 105.82C316.87 106.45 316.01 106.9 315.02 107.18C314.03 107.46 312.98 107.6 311.87 107.6C310.76 107.6 309.71 107.46 308.72 107.18C307.73 106.9 306.87 106.45 306.15 105.82C305.43 105.19 304.85 104.37 304.42 103.37C303.98 102.37 303.77 101.15 303.77 99.6999V79.6899H300.93V99.7799C300.93 101.48 301.18 102.98 301.7 104.27C302.21 105.57 302.95 106.65 303.91 107.53C304.87 108.41 306.03 109.07 307.38 109.52C308.73 109.97 310.23 110.19 311.87 110.19C313.51 110.19 315.01 109.96 316.36 109.52C317.71 109.07 318.87 108.41 319.83 107.53C320.79 106.65 321.52 105.56 322.04 104.27Z" fill="white"/>
<path fill-rule="evenodd" clip-rule="evenodd" d="M338.94 79.6899H352.09C353.62 79.6899 354.94 79.9299 356.04 80.3999C357.14 80.8699 358.04 81.4899 358.74 82.2599C359.44 83.0299 359.95 83.9099 360.29 84.9099C360.62 85.9099 360.79 86.9299 360.79 87.9599C360.79 90.5299 360.01 92.4699 358.45 93.8099C356.89 95.1499 354.76 95.9099 352.06 96.1099L361.58 109.43H357.99L348.55 96.2299H341.78V109.43H338.94V79.6899ZM350.58 93.6399C352.08 93.6399 353.31 93.4699 354.25 93.1199C355.2 92.7699 355.94 92.3299 356.48 91.7899C357.02 91.2399 357.4 90.6399 357.61 89.9699C357.82 89.2999 357.92 88.6299 357.92 87.9599C357.92 86.2399 357.4 84.8599 356.37 83.8299C355.34 82.7999 353.56 82.2799 351.02 82.2799H341.75V93.6399H350.58Z" fill="white"/>
<path d="M394.36 79.6899H374.9V109.43H395.24V106.84H377.74V95.3999H392.73V92.8099H377.74V82.2799H394.36V79.6899Z" fill="white"/>
<path fill-rule="evenodd" clip-rule="evenodd" d="M432.79 79.6901H444.49C445.99 79.6901 447.34 79.91 448.52 80.34C449.7 80.7701 450.73 81.36 451.59 82.09C452.45 82.83 453.18 83.6901 453.78 84.6801C454.38 85.6701 454.86 86.7101 455.22 87.8101C455.58 88.91 455.84 90.0401 455.99 91.1901C456.14 92.3501 456.22 93.4701 456.22 94.5501C456.22 96.1101 456.02 97.7701 455.62 99.5201C455.22 101.27 454.53 102.88 453.57 104.35C452.61 105.82 451.33 107.02 449.73 107.98C448.13 108.94 446.12 109.42 443.69 109.42H432.79V79.6901ZM435.63 106.84H443.52C445.36 106.84 446.91 106.48 448.18 105.75C449.45 105.03 450.46 104.09 451.23 102.93C452 101.78 452.55 100.47 452.88 99.0001C453.21 97.5401 453.38 96.0601 453.38 94.5501C453.38 93.1801 453.23 91.7701 452.92 90.3101C452.61 88.8501 452.1 87.5301 451.38 86.34C450.65 85.16 449.7 84.1801 448.52 83.4201C447.34 82.6501 445.87 82.2701 444.11 82.2701H435.63V106.84Z" fill="white"/>
<path d="M490.68 79.6899H471.22V109.43H491.56V106.84H474.06V95.3999H489.05V92.8099H474.06V82.2799H490.68V79.6899Z" fill="white"/>
<path d="M506.43 79.6899H525.81V82.2799H509.27V92.2199H524.05V94.8099H509.27V109.43H506.43V79.6899Z" fill="white"/>
<path d="M540.59 79.6899H543.43V109.43H540.59V79.6899Z" fill="white"/>
<path d="M40.69 79.83C40.69 104.3 58.91 124.13 81.38 124.13C58.91 124.13 40.69 143.96 40.69 168.43C40.69 143.96 22.47 124.13 0 124.13C22.47 124.13 40.69 104.3 40.69 79.83Z" fill="white"/>
<path d="M561.47 65.0082C561.467 65.0088 561.463 65.0094 561.46 65.01L561.47 65V65.0082Z" fill="white"/>
<path fill-rule="evenodd" clip-rule="evenodd" d="M561.47 65.0082V72.97H562.94V69.65H563.68C564.51 69.66 564.9 70.01 565.13 71.06C565.35 72.07 565.54 72.74 565.67 72.97H567.19C567.057 72.7119 566.882 72.0244 566.677 71.2186C566.636 71.0564 566.594 70.8893 566.55 70.72C566.35 69.94 566.01 69.38 565.42 69.16V69.13C566.18 68.86 566.89 68.15 566.89 67.11C566.89 66.42 566.64 65.86 566.19 65.49C565.65 65.04 564.86 64.84 563.7 64.84C562.845 64.84 562.03 64.9091 561.47 65.0082ZM563.8 68.58H562.93V66.03C563.08 65.99 563.38 65.95 563.85 65.95C564.8 65.96 565.42 66.37 565.42 67.25C565.42 68.05 564.8 68.58 563.8 68.58Z" fill="white"/>
<path fill-rule="evenodd" clip-rule="evenodd" d="M563.493 77.6715C558.959 77.3489 555.546 73.412 555.868 68.8782C556.191 64.3443 560.128 60.9305 564.661 61.2531C569.195 61.5757 572.609 65.5126 572.287 70.0464C571.964 74.5803 568.027 77.9941 563.493 77.6715ZM556.826 68.9463C556.541 72.9513 559.556 76.429 563.561 76.714C567.566 76.9989 571.044 73.9833 571.329 69.9783C571.614 65.9733 568.598 62.4956 564.593 62.2106C560.588 61.9257 557.111 64.9413 556.826 68.9463Z" fill="white"/>
</g>
<defs>
<clipPath id="clip0_5702_13530">
<rect width="574.91" height="168.62" fill="white"/>
</clipPath>
</defs>
</svg>
