<svg width="398" height="116" viewBox="0 0 398 116" fill="none" xmlns="http://www.w3.org/2000/svg">
<g clip-path="url(#clip0_697_19171)">
<path d="M17.4576 84H40.5503L20.6239 50.8187H38.7226V31H18.6739C15.3657 30.9993 12.1167 31.8794 9.25928 33.5503C6.40186 35.2212 4.03863 37.6229 2.41137 40.5097C0.784104 43.3964 -0.0487701 46.6647 -0.00204293 49.98C0.0446843 53.2953 0.969335 56.5386 2.67731 59.3782L17.4643 84H17.4576Z" fill="white"/>
<path d="M61.4018 31H38.3125L58.2389 64.1813H40.1402V84H60.1855C63.4938 84.0007 66.7428 83.1206 69.6002 81.4497C72.4576 79.7788 74.8208 77.3771 76.4481 74.4903C78.0754 71.6036 78.9082 68.3353 78.8615 65.02C78.8148 61.7047 77.8901 58.4614 76.1822 55.6218L61.4018 31ZM133.905 37.5919C137.901 37.5919 140.767 38.4962 142.505 40.3081C144.24 42.1167 145.11 44.7966 145.11 48.3476V52.2132C145.11 55.7642 144.24 58.4441 142.505 60.256C140.767 62.0679 137.901 62.9723 133.905 62.9723H112.333V72.9992C112.333 73.7644 111.95 74.1486 111.186 74.1486H105.558C104.761 74.1486 104.361 73.7644 104.361 72.9992V39.1554C104.361 38.1119 104.88 37.5886 105.925 37.5886H133.905V37.5919ZM112.333 56.0756H132.289C134.061 56.0756 135.313 55.6947 136.041 54.9295C136.771 54.1643 137.138 52.995 137.138 51.4282V49.444C137.138 47.8772 136.774 46.7112 136.041 45.946C135.313 45.1808 134.061 44.7966 132.289 44.7966H113.011C112.558 44.7966 112.333 45.0052 112.333 45.4259V56.0756ZM192.32 37.5919C196.312 37.5919 199.178 38.4962 200.916 40.3081C202.655 42.1167 203.52 44.7966 203.52 48.3476V51.3255C203.52 54.32 202.912 56.6884 201.696 58.4275C200.483 60.1699 198.5 61.2829 195.757 61.7731L204.667 72.8435C204.842 73.0158 204.895 73.2741 204.823 73.6253C204.757 73.9731 204.476 74.1486 203.99 74.1486H197.267C196.818 74.1486 196.507 74.0956 196.332 73.9896C196.125 73.8532 195.947 73.6763 195.81 73.4696L187.577 62.6046H170.741V72.9992C170.741 73.7644 170.361 74.1486 169.597 74.1486H163.969C163.169 74.1486 162.769 73.7644 162.769 72.9992V39.1554C162.769 38.1119 163.291 37.5886 164.332 37.5886H192.316L192.32 37.5919ZM170.741 56.2313H190.703C192.475 56.2313 193.724 55.8471 194.455 55.0819C195.182 54.3167 195.549 53.1507 195.549 51.5839V49.391C195.549 47.8242 195.185 46.6582 194.455 45.8897C193.727 45.1278 192.472 44.7402 190.703 44.7402H171.421C170.972 44.7402 170.744 44.9522 170.744 45.3696L170.741 56.2313ZM251.775 37.5919C254.419 37.5919 256.666 37.8436 258.524 38.3471C260.381 38.8539 261.895 39.6523 263.058 40.7487C264.222 41.8451 265.064 43.2662 265.583 45.0053C266.106 46.7476 266.367 48.8709 266.367 51.3785V60.3587C266.367 62.8662 266.106 64.9995 265.583 66.7584C265.064 68.5141 264.222 69.9451 263.058 71.0415C261.895 72.1346 260.381 72.9296 258.524 73.4166C256.666 73.9035 254.415 74.1453 251.775 74.1453H235.676C233.032 74.1453 230.794 73.9035 228.953 73.4166C227.112 72.9296 225.608 72.1379 224.445 71.0415C223.282 69.9451 222.429 68.5174 221.893 66.7584C221.355 64.9995 221.084 62.8662 221.084 60.3587V51.3785C221.084 48.8709 221.355 46.7476 221.893 45.0053C222.429 43.2662 223.282 41.8451 224.445 40.7487C225.608 39.6556 227.112 38.8539 228.953 38.3471C230.794 37.8436 233.035 37.5919 235.676 37.5919H251.775ZM229.056 59.7856C229.056 61.1437 229.171 62.2832 229.396 63.2074C229.621 64.1283 229.994 64.8604 230.516 65.4003C231.035 65.9403 231.739 66.3212 232.625 66.5498C233.728 66.7981 234.856 66.9116 235.986 66.8876H251.464C252.819 66.8876 253.94 66.775 254.825 66.5498C255.711 66.3212 256.412 65.9403 256.934 65.4003C257.456 64.8604 257.826 64.1283 258.058 63.2074C258.282 62.2832 258.395 61.1437 258.395 59.7856V51.9516C258.395 50.5934 258.282 49.4539 258.054 48.5297C257.883 47.7115 257.496 46.9543 256.934 46.3369C256.352 45.7634 255.622 45.3651 254.825 45.1874C253.723 44.9384 252.594 44.825 251.464 44.8496H235.983C234.628 44.8496 233.508 44.9622 232.622 45.1874C231.736 45.416 231.035 45.7969 230.513 46.3369C229.991 46.8768 229.621 47.6089 229.389 48.5297C229.143 49.6531 229.03 50.8016 229.052 51.9516L229.056 59.7856ZM315.609 37.5919C318.247 37.5919 320.497 37.8436 322.355 38.3471C324.216 38.8539 325.726 39.6523 326.889 40.7487C328.053 41.8451 328.896 43.2662 329.418 45.0053C329.937 46.7476 330.198 48.8709 330.198 51.3785V60.3587C330.198 62.8662 329.937 64.9995 329.418 66.7584C328.896 68.5141 328.053 69.9451 326.889 71.0415C325.726 72.1346 324.212 72.9296 322.355 73.4166C320.497 73.9035 318.247 74.1453 315.609 74.1453H299.507C296.866 74.1453 294.625 73.9035 292.784 73.4166C290.943 72.9296 289.443 72.1379 288.276 71.0415C287.113 69.9451 286.26 68.5174 285.725 66.7584C285.186 64.9995 284.915 62.8662 284.915 60.3587V51.3785C284.915 48.8709 285.186 46.7476 285.725 45.0053C286.263 43.2662 287.113 41.8451 288.276 40.7487C289.443 39.6556 290.943 38.8539 292.784 38.3471C294.625 37.8436 296.866 37.5919 299.507 37.5919H315.609ZM292.89 59.7856C292.89 61.1437 293.002 62.2832 293.227 63.2074C293.452 64.1283 293.825 64.8604 294.351 65.4003C294.87 65.9403 295.574 66.3212 296.459 66.5498C297.562 66.7981 298.691 66.9116 299.821 66.8876H315.295C316.65 66.8876 317.771 66.775 318.656 66.5498C319.542 66.3212 320.243 65.9403 320.765 65.4003C321.287 64.8604 321.661 64.1283 321.889 63.2074C322.135 62.0841 322.248 60.9356 322.226 59.7856V51.9516C322.226 50.5934 322.113 49.4539 321.885 48.5297C321.714 47.7117 321.327 46.9546 320.765 46.3369C320.183 45.7634 319.453 45.3651 318.656 45.1874C317.554 44.9384 316.425 44.825 315.295 44.8496H299.817C298.462 44.8496 297.345 44.9622 296.459 45.1874C295.662 45.3659 294.931 45.764 294.347 46.3369C293.825 46.8768 293.455 47.6089 293.227 48.5297C292.981 49.6531 292.868 50.8016 292.89 51.9516V59.7856ZM386.262 37.5919C387.062 37.5919 387.462 37.9728 387.462 38.738V43.7001C387.462 44.4653 387.062 44.8496 386.262 44.8496H363.648C362.293 44.8496 361.173 44.9622 360.287 45.1874C359.491 45.3643 358.76 45.7626 358.179 46.3369C357.616 46.9543 357.229 47.7115 357.058 48.5297C356.81 49.6528 356.695 50.8015 356.718 51.9516V52.995H386.004C386.768 52.995 387.148 53.3792 387.148 54.1444V58.2718C387.148 59.037 386.768 59.4212 386.004 59.4212H356.718V72.9992C356.718 73.7644 356.338 74.1486 355.571 74.1486H349.946C349.146 74.1486 348.746 73.7644 348.746 72.9992V51.3785C348.746 48.8709 349.014 46.7476 349.552 45.0053C350.091 43.2662 350.944 41.8451 352.107 40.7487C353.271 39.6556 354.774 38.8539 356.615 38.3471C358.456 37.8436 360.697 37.5919 363.335 37.5919H386.262Z" fill="white"/>
</g>
<defs>
<clipPath id="clip0_697_19171">
<rect width="398" height="116" fill="white"/>
</clipPath>
</defs>
</svg>
