<svg width="292" height="49" viewBox="0 0 292 49" fill="none" xmlns="http://www.w3.org/2000/svg">
<path d="M5.48578 27.7858V26.5098H15.6058C17.0724 26.5098 18.3778 26.2164 19.5218 25.6298C20.6658 25.0431 21.5604 24.2071 22.2058 23.1218C22.8804 22.0364 23.2178 20.7458 23.2178 19.2498C23.2178 17.7538 22.8804 16.4631 22.2058 15.3778C21.5604 14.2924 20.6658 13.4564 19.5218 12.8698C18.3778 12.2831 17.0724 11.9898 15.6058 11.9898H5.48578V10.7138H15.8258C17.5271 10.7138 19.0378 11.0658 20.3578 11.7698C21.6778 12.4738 22.7191 13.4711 23.4818 14.7618C24.2738 16.0231 24.6698 17.5191 24.6698 19.2498C24.6698 20.9804 24.2738 22.4911 23.4818 23.7818C22.7191 25.0431 21.6778 26.0258 20.3578 26.7298C19.0378 27.4338 17.5271 27.7858 15.8258 27.7858H5.48578ZM4.78178 40.4578V10.7138H6.18978V40.4578H4.78178ZM26.3445 40.4578L38.4445 10.7138H39.7645L51.7765 40.4578H50.2365L38.7525 11.9458H39.4125L27.8405 40.4578H26.3445ZM31.4045 30.6458V29.3698H46.7605V30.6458H31.4045ZM58.6811 26.4658V25.1898H68.4491C70.8838 25.1898 72.7318 24.5884 73.9931 23.3858C75.2544 22.1538 75.8851 20.5551 75.8851 18.5898C75.8851 16.5951 75.2544 14.9964 73.9931 13.7938C72.7318 12.5911 70.8838 11.9898 68.4491 11.9898H58.6811V10.7138H68.2291C70.1944 10.7138 71.8518 11.0511 73.2011 11.7258C74.5504 12.3711 75.5771 13.2951 76.2811 14.4978C76.9851 15.6711 77.3371 17.0351 77.3371 18.5898C77.3371 20.1444 76.9851 21.5231 76.2811 22.7258C75.5771 23.8991 74.5504 24.8231 73.2011 25.4978C71.8518 26.1431 70.1944 26.4658 68.2291 26.4658H58.6811ZM57.9771 40.4578V10.7138H59.3851V40.4578H57.9771ZM77.6891 40.4578L65.7651 25.8498L67.3051 25.5858L79.5811 40.4578H77.6891ZM92.3937 40.4578V11.5498H93.8017V40.4578H92.3937ZM81.0857 11.9898V10.7138H105.11V11.9898H81.0857ZM111.602 40.4578V10.7138H112.658L113.01 12.5618V40.4578H111.602ZM132.15 40.4578L112.35 12.6058L112.658 10.7138L132.458 38.5658L132.15 40.4578ZM132.15 40.4578L131.798 38.6098V10.7138H133.206V40.4578H132.15ZM141.938 40.4578V10.7138H143.346V40.4578H141.938ZM142.73 40.4578V39.1818H161.078V40.4578H142.73ZM142.73 25.8058V24.5738H159.758V25.8058H142.73ZM142.73 11.9898V10.7138H160.814V11.9898H142.73ZM168.509 26.4658V25.1898H178.277C180.712 25.1898 182.56 24.5884 183.821 23.3858C185.083 22.1538 185.713 20.5551 185.713 18.5898C185.713 16.5951 185.083 14.9964 183.821 13.7938C182.56 12.5911 180.712 11.9898 178.277 11.9898H168.509V10.7138H178.057C180.023 10.7138 181.68 11.0511 183.029 11.7258C184.379 12.3711 185.405 13.2951 186.109 14.4978C186.813 15.6711 187.165 17.0351 187.165 18.5898C187.165 20.1444 186.813 21.5231 186.109 22.7258C185.405 23.8991 184.379 24.8231 183.029 25.4978C181.68 26.1431 180.023 26.4658 178.057 26.4658H168.509ZM167.805 40.4578V10.7138H169.213V40.4578H167.805ZM187.517 40.4578L175.593 25.8498L177.133 25.5858L189.409 40.4578H187.517ZM202.329 40.8978C200.041 40.8978 198.046 40.4578 196.345 39.5778C194.644 38.6684 193.192 37.4364 191.989 35.8818L193.001 34.9138C194.233 36.5858 195.626 37.7884 197.181 38.5218C198.736 39.2258 200.481 39.5778 202.417 39.5778C204.588 39.5778 206.362 39.0498 207.741 37.9938C209.12 36.9378 209.809 35.4711 209.809 33.5938C209.809 32.1858 209.516 31.0418 208.929 30.1618C208.372 29.2524 207.624 28.5191 206.685 27.9618C205.746 27.4044 204.72 26.9204 203.605 26.5098C202.49 26.0698 201.376 25.6444 200.261 25.2338C199.146 24.7938 198.12 24.2658 197.181 23.6498C196.242 23.0044 195.48 22.1978 194.893 21.2298C194.336 20.2324 194.057 18.9711 194.057 17.4458C194.057 16.0084 194.394 14.7618 195.069 13.7058C195.773 12.6204 196.741 11.7844 197.973 11.1978C199.205 10.5818 200.642 10.2738 202.285 10.2738C204.192 10.2738 205.893 10.6404 207.389 11.3738C208.885 12.1071 210.161 13.1631 211.217 14.5418L210.205 15.5098C209.208 14.2484 208.064 13.2804 206.773 12.6058C205.512 11.9311 204.016 11.5938 202.285 11.5938C200.29 11.5938 198.662 12.1071 197.401 13.1338C196.14 14.1604 195.509 15.5831 195.509 17.4018C195.509 18.7218 195.788 19.8071 196.345 20.6578C196.932 21.4791 197.694 22.1684 198.633 22.7258C199.572 23.2538 200.598 23.7231 201.713 24.1338C202.828 24.5151 203.942 24.9258 205.057 25.3658C206.172 25.8058 207.198 26.3484 208.137 26.9938C209.076 27.6391 209.824 28.4751 210.381 29.5018C210.968 30.4991 211.261 31.7751 211.261 33.3298C211.261 35.8231 210.454 37.7151 208.841 39.0058C207.257 40.2671 205.086 40.8978 202.329 40.8978Z" fill="white"/>
<path fill-rule="evenodd" clip-rule="evenodd" d="M246.84 12.3791C250.939 5.67669 258.347 1.2 266.808 1.2C279.712 1.2 290.169 11.6154 290.169 24.4579C290.169 26.3163 289.95 28.124 289.537 29.8565L288.93 29.9048C289.017 30.9955 288.89 32.0409 288.535 33.0215C288.458 33.2135 288.379 33.4042 288.298 33.5937C287.865 34.52 287.232 35.337 286.422 36.0411L286.808 36.4842C282.715 43.2157 275.29 47.7158 266.808 47.7158C253.903 47.7158 243.446 37.3004 243.446 24.4579C243.446 22.6017 243.665 20.7962 244.077 19.0655L244.763 19.011C244.669 17.8229 244.828 16.6885 245.259 15.6331C245.69 14.5777 246.371 13.6565 247.27 12.8747L246.84 12.3791ZM289.4 34.0687C285.65 42.7996 276.945 48.9158 266.808 48.9158C253.245 48.9158 242.246 37.9681 242.246 24.4579C242.246 10.9477 253.245 0 266.808 0C280.37 0 291.369 10.9477 291.369 24.4579C291.369 27.6388 290.76 30.6776 289.65 33.465C289.617 33.556 289.582 33.6466 289.545 33.7368C289.499 33.8488 289.451 33.9595 289.4 34.0687ZM257.741 8.59814C259.507 7.0783 261.591 6.05656 263.888 5.69409C266.03 5.35599 268.173 5.62071 270.195 6.39L270.192 6.40292C270.219 6.40814 270.246 6.41381 270.273 6.4199C270.579 6.53874 270.883 6.66919 271.184 6.8109C271.292 6.88104 271.4 6.95974 271.507 7.04733C272.003 7.45333 272.467 8.04029 272.879 8.80904L273.742 8.34624C277.649 11.2307 280.665 16.1444 281.609 22.1285C282.672 28.8737 280.813 35.1355 277.217 39.0867C275.784 39.1562 274.263 39.1088 272.681 38.9397L272.554 40.1329C273.718 40.2574 274.855 40.3187 275.954 40.3176C274.188 41.8374 272.104 42.8591 269.807 43.2216C267.664 43.5598 265.52 43.2948 263.498 42.5249L263.501 42.5125C263.475 42.5075 263.449 42.5021 263.424 42.4963C263.114 42.3765 262.808 42.2449 262.505 42.1019C262.398 42.0324 262.291 41.9546 262.186 41.8681C261.69 41.4621 261.226 40.8751 260.814 40.1064L259.952 40.5686C256.046 37.684 253.03 32.7708 252.086 26.7872C251.022 20.042 252.882 13.7802 256.478 9.82895C257.91 9.75959 259.43 9.80709 261.012 9.97613L261.139 8.78286C259.976 8.65851 258.84 8.59714 257.741 8.59814ZM255.918 8.65935C258.024 6.47568 260.67 4.98703 263.701 4.50874C266.117 4.12741 268.499 4.43247 270.721 5.2961C271.054 5.38929 271.375 5.5276 271.682 5.70887C276.091 7.78522 279.77 12.0828 281.685 17.5349L281.896 17.2682C284.044 18.9684 285.843 20.8095 287.208 22.6975L286.235 23.4006C285.16 21.9134 283.789 20.4414 282.161 19.0416C282.425 19.9806 282.637 20.9489 282.794 21.9415C283.817 28.4305 282.243 34.6679 278.913 38.9452C279.264 38.903 279.608 38.8531 279.945 38.7957L280.146 39.9787C279.386 40.1084 278.594 40.201 277.777 40.2563C275.671 42.44 273.025 43.9287 269.994 44.407C267.579 44.7881 265.198 44.4835 262.976 43.6207C262.64 43.5269 262.315 43.3869 262.004 43.203C257.599 41.125 253.923 36.8287 252.009 31.3791L251.797 31.6476C249.649 29.9474 247.85 28.1063 246.485 26.2183L247.458 25.5152C248.533 27.0032 249.906 28.476 251.535 29.8765C251.271 28.9367 251.058 27.9677 250.901 26.9742C249.878 20.4851 251.452 14.2476 254.782 9.97034C254.431 10.0126 254.086 10.0625 253.748 10.1201L253.547 8.93708C254.308 8.80731 255.1 8.71464 255.918 8.65935ZM267.335 7.23865C266.929 7.53029 266.512 7.8961 266.091 8.3388C265.471 8.9908 264.861 9.78793 264.274 10.7127L263.261 10.0698C263.881 9.09286 264.538 8.23097 265.222 7.51171C265.687 7.02289 266.159 6.6053 266.636 6.26337L267.335 7.23865ZM275.44 13.1531C274.367 12.6052 273.25 12.0917 272.093 11.6186C270.905 11.1329 269.717 10.7072 268.538 10.3403L268.181 11.4862C269.327 11.8427 270.483 12.2568 271.639 12.7295C272.581 13.1148 273.496 13.5275 274.381 13.9639C274.46 14.5357 274.522 15.1333 274.567 15.7547C274.648 16.8877 274.67 18.0739 274.632 19.2929L275.832 19.3299C275.87 18.0736 275.848 16.8462 275.764 15.6686C275.703 14.8286 275.612 14.026 275.49 13.2659L275.525 13.1968C275.508 13.1881 275.491 13.1794 275.475 13.1707C275.473 13.1632 275.472 13.1556 275.471 13.148L275.44 13.1531ZM261.642 16.1977C261.301 17.1275 260.986 18.1028 260.7 19.1148C260.38 20.2492 260.104 21.4065 259.875 22.5708L258.697 22.3385C258.933 21.1436 259.216 19.955 259.545 18.789C259.839 17.7487 260.163 16.7443 260.515 15.7847L261.642 16.1977ZM272.993 29.8006C273.313 28.6662 273.588 27.5089 273.818 26.3446L274.995 26.577C274.76 27.7718 274.476 28.9604 274.148 30.1264C273.854 31.1667 273.53 32.1711 273.178 33.1307L272.051 32.7178C272.392 31.7879 272.707 30.8126 272.993 29.8006ZM259.061 29.6225C259.023 30.8415 259.044 32.0277 259.126 33.1607C259.171 33.7823 259.233 34.38 259.312 34.9518C260.197 35.3883 261.111 35.801 262.054 36.1863C263.21 36.659 264.366 37.0731 265.512 37.4296L265.155 38.5755C263.976 38.2086 262.788 37.7828 261.6 37.2972C260.443 36.824 259.325 36.3104 258.252 35.7624L258.222 35.7674C258.221 35.7599 258.22 35.7525 258.218 35.745C258.201 35.7363 258.184 35.7276 258.168 35.7189L258.203 35.65C258.081 34.8898 257.99 34.087 257.929 33.2468C257.844 32.0693 257.823 30.8418 257.861 29.5855L259.061 29.6225ZM267.602 40.5766C268.222 39.9246 268.832 39.1275 269.418 38.2027L270.432 38.8456C269.812 39.8226 269.155 40.6844 268.471 41.4037C268.006 41.8925 267.534 42.3101 267.057 42.652L266.358 41.6768C266.764 41.3851 267.181 41.0193 267.602 40.5766Z" fill="white"/>
</svg>
